<svg width="37" height="33" viewBox="0 0 37 33" fill="none" xmlns="http://www.w3.org/2000/svg">
<path d="M1.5 7.49961H19.95H18.05H18.65H1.5ZM2.25 6.09961H28.7L25.75 2.54961C25.5833 2.38294 25.3917 2.24961 25.175 2.14961C24.9583 2.04961 24.7333 1.99961 24.5 1.99961H6.45C6.21667 1.99961 5.99167 2.04961 5.775 2.14961C5.55833 2.24961 5.36667 2.38294 5.2 2.54961L2.25 6.09961ZM11.5 18.0496L15.5 16.0496L19.5 18.0496V7.49961H11.5V18.0496ZM19.25 31.3996H3.1C2.275 31.3996 1.56875 31.1059 0.981249 30.5184C0.393748 29.9309 0.0999985 29.2246 0.0999985 28.3996V7.54961C0.0999985 7.19961 0.158332 6.86211 0.274998 6.53711C0.391665 6.21211 0.566665 5.91628 0.799999 5.64961L4.1 1.69961C4.36667 1.34558 4.7 1.07374 5.1 0.88411C5.5 0.694443 5.93588 0.599609 6.40765 0.599609H24.4923C24.9641 0.599609 25.4062 0.694443 25.8188 0.88411C26.2313 1.07374 26.575 1.34558 26.85 1.69961L30.2 5.74961C30.4333 6.03001 30.6083 6.33589 30.725 6.66726C30.8417 6.99863 30.9 7.34274 30.9 7.69961V14.5496C30.7333 14.5163 30.55 14.4996 30.35 14.4996H29.5V7.49961H20.9V18.5996C20.7667 18.7329 20.5917 18.9329 20.375 19.1996C20.1583 19.4663 20.0167 19.6829 19.95 19.8496L15.5 17.6496L10.1 20.3496V7.49961H1.5V28.3996C1.5 28.8663 1.65 29.2496 1.95 29.5496C2.25 29.8496 2.63333 29.9996 3.1 29.9996H18.65C18.725 30.2552 18.8188 30.4941 18.9312 30.7163C19.0438 30.9385 19.15 31.1663 19.25 31.3996ZM29.05 32.9496V26.9496H23.05V25.5496H29.05V19.5496H30.45V25.5496H36.45V26.9496H30.45V32.9496H29.05Z"/>
</svg>
