<svg width="16" height="10" viewBox="0 0 16 10" fill="none" xmlns="http://www.w3.org/2000/svg">
<path fill-rule="evenodd" clip-rule="evenodd" d="M6.1434 0.05456C5.58062 0.126154 5.57848 0.126607 5.4466 0.198799C5.24406 0.309653 5.07709 0.540592 5.03829 0.763533C5.02961 0.813402 5.01699 0.953398 5.01022 1.07466L4.99793 1.2951L4.8821 1.31652C4.57515 1.37329 4.17458 1.49976 3.91702 1.62126L3.80237 1.67534L3.79186 1.62066C3.78607 1.59058 3.78135 1.532 3.78135 1.49048C3.78135 1.38635 3.71767 1.26389 3.64217 1.22276C3.51894 1.15567 3.41714 1.18907 3.02022 1.42686C1.9582 2.06314 1.10889 2.966 0.603779 3.99566C0.311041 4.59238 0.146063 5.12387 0.0480248 5.78613C0.00306726 6.08977 -0.0154457 6.80112 0.0148688 7.05944C0.175785 8.42996 1.06561 9.31515 2.69184 9.72244C3.29304 9.87301 3.86872 9.94683 4.74268 9.98544C5.35477 10.0125 11.3415 9.99877 11.6694 9.96959C12.4155 9.90316 12.8747 9.83409 13.311 9.72266C14.8441 9.33103 15.6921 8.55572 15.9496 7.30996C16.0033 7.05035 16.0171 6.36795 15.9763 5.99524C15.8076 4.45606 15.1096 3.13804 13.9125 2.0985C13.5845 1.81359 13.1433 1.50877 12.7609 1.3029C12.5711 1.20069 12.5346 1.18702 12.474 1.19547C12.3279 1.21587 12.2568 1.31129 12.2372 1.51334C12.2292 1.59556 12.2186 1.66707 12.2137 1.67225C12.2087 1.67744 12.1587 1.65767 12.1026 1.62835C11.8779 1.51086 11.5391 1.39739 11.1987 1.32573L11.007 1.28532L10.9872 1.03772C10.9582 0.675256 10.9343 0.594559 10.8034 0.415919C10.7238 0.307295 10.5924 0.207576 10.4601 0.155241C10.3414 0.108346 9.35644 -0.0149484 9.23177 0.00149929C9.00674 0.0311849 8.81197 0.174318 8.71353 0.382335C8.66965 0.475037 8.65576 0.534625 8.64092 0.693716L8.62257 0.890472H8.00046H7.37838L7.35975 0.694297C7.34472 0.536058 7.33058 0.475835 7.2866 0.382897C7.18025 0.158179 6.97162 0.0158435 6.7274 0.00139055C6.66382 -0.00236322 6.40746 0.0209756 6.1434 0.05456ZM6.78714 0.579235C6.83781 0.631951 6.82472 0.500315 6.96327 2.35027C7.13161 4.598 7.19548 5.37394 7.22341 5.51007C7.25892 5.68327 7.34512 5.85981 7.4448 5.96352C7.64893 6.17585 7.99862 6.23359 8.27458 6.1005C8.39276 6.04353 8.57231 5.84902 8.64798 5.69602C8.766 5.45741 8.87647 5.01791 8.90075 4.69043C8.91016 4.56347 8.90706 4.54084 8.8723 4.48234C8.79961 4.35997 8.66299 4.31988 8.54072 4.38503C8.43698 4.44032 8.40827 4.4992 8.37454 4.72585C8.28619 5.31949 8.14119 5.63255 7.95458 5.63255C7.8199 5.63255 7.75434 5.54324 7.72165 5.31521C7.68308 5.04597 7.4148 1.46592 7.43188 1.44815C7.44673 1.4327 8.56706 1.42906 8.58181 1.44442C8.58706 1.44987 8.57442 1.73032 8.55373 2.06765C8.5164 2.67612 8.51637 2.68149 8.55001 2.74536C8.59734 2.83529 8.66308 2.87995 8.76129 2.88887C8.87463 2.89919 8.95529 2.85224 9.00489 2.74708C9.03913 2.67449 9.04767 2.58027 9.10349 1.65863C9.13865 1.07821 9.17286 0.633565 9.18407 0.611804C9.22532 0.531633 9.24741 0.530835 9.75756 0.590841C10.0229 0.62205 10.2616 0.656305 10.288 0.666986C10.355 0.694079 10.4369 0.796718 10.448 0.867423C10.4531 0.900047 10.4969 1.46124 10.5454 2.11453C10.7313 4.62045 10.7895 5.33517 10.8162 5.44214C10.9428 5.94789 11.3167 6.23501 11.7515 6.16031C11.9219 6.13103 12.0525 6.06213 12.1668 5.94118C12.2734 5.82838 12.3736 5.63631 12.4177 5.46028C12.4338 5.39581 12.5024 4.65305 12.5859 3.6378C12.6635 2.69527 12.7299 1.92109 12.7334 1.91739C12.7525 1.89748 13.2442 2.23719 13.4838 2.43585C14.4742 3.25698 15.1496 4.36334 15.3807 5.5433C15.4932 6.11728 15.5148 6.8017 15.4336 7.21577C15.1598 8.61256 13.8529 9.31948 11.3207 9.44056C10.8295 9.46405 5.17292 9.46377 4.6791 9.44024C1.94021 9.30967 0.621769 8.48845 0.523922 6.85206C0.483497 6.17593 0.60479 5.38473 0.846766 4.74612C1.20287 3.80628 1.81496 2.98437 2.63954 2.33881C2.86053 2.16579 3.27191 1.88624 3.28465 1.90042C3.28739 1.90348 3.32201 2.32624 3.36156 2.83989C3.55056 5.29393 3.56364 5.43377 3.6228 5.6315C3.7352 6.00721 4.06901 6.2255 4.43468 6.16247C4.87875 6.08592 5.13082 5.67219 5.25473 4.81652C5.28729 4.59165 5.27946 4.52891 5.20832 4.44464C5.11058 4.32882 4.93894 4.32238 4.84166 4.43088C4.77758 4.50232 4.76269 4.53939 4.74865 4.66238C4.72981 4.82761 4.67422 5.10178 4.63282 5.2336C4.52983 5.56161 4.4005 5.68349 4.2279 5.61523C4.11074 5.56888 4.09164 5.45968 4.00087 4.31783C3.84889 2.40627 3.84208 2.3018 3.86709 2.27044C3.90438 2.22369 4.26517 2.04928 4.45071 1.98831C4.61941 1.93286 4.89461 1.86065 4.93718 1.86065C4.95383 1.86065 4.95132 1.9704 4.92596 2.35375L4.89331 2.84688L4.92875 2.92273C4.95456 2.97802 4.9849 3.00901 5.04068 3.0371C5.13603 3.08512 5.18029 3.08545 5.27286 3.03883C5.41315 2.96819 5.41137 2.97811 5.48093 1.87878C5.51468 1.34519 5.55017 0.878757 5.55979 0.842289C5.57863 0.770823 5.67458 0.670269 5.73842 0.655054C5.79016 0.642723 6.6156 0.54206 6.68894 0.539141C6.72799 0.537581 6.75945 0.550438 6.78714 0.579235ZM11.5166 1.97087C11.6768 2.02342 12.0648 2.20906 12.1389 2.2686C12.1721 2.29525 12.1711 2.31478 12.0722 3.52437C11.9307 5.25622 11.9273 5.29043 11.8874 5.40138C11.8682 5.45475 11.8246 5.52656 11.7905 5.56094C11.7341 5.61781 11.7192 5.62349 11.6261 5.62349C11.462 5.62349 11.3745 5.52672 11.3208 5.28557C11.302 5.20149 11.0501 2.01499 11.0505 1.86716C11.0506 1.84143 11.2728 1.8909 11.5166 1.97087Z"/>
</svg>