<svg width="16" height="12" viewBox="0 0 16 12" fill="none" xmlns="http://www.w3.org/2000/svg">
<path fill-rule="evenodd" clip-rule="evenodd" d="M6.92999 0.108561C6.82416 0.170662 6.71753 0.233419 6.69306 0.248018L6.64859 0.274589L6.71729 0.382726C6.75507 0.442216 6.809 0.542018 6.83713 0.60454C6.88897 0.719732 6.99885 1.0742 7.02136 1.19884L7.03367 1.26693L6.73457 1.26619C6.47268 1.26554 6.42055 1.27013 6.31561 1.30314C6.1218 1.36409 5.982 1.44195 5.80898 1.58538C5.6228 1.73971 5.52879 1.87388 5.4428 2.108C5.39137 2.24801 5.38737 2.28021 5.38737 2.5536C5.38737 2.82695 5.39139 2.85923 5.44286 2.99982C5.54639 3.28257 5.72472 3.51848 6.00384 3.74192C6.27168 3.95635 6.60329 4.11119 6.98218 4.19875C7.1629 4.24053 7.21551 4.24518 7.50635 4.24518C7.79674 4.24518 7.8502 4.24046 8.03169 4.19882C8.27611 4.14273 8.62969 4.00046 8.81267 3.88456C9.00258 3.76429 9.23666 3.55106 9.35553 3.39008C9.66287 2.9739 9.71621 2.53213 9.52523 1.98506C9.51278 1.94941 9.54834 1.93214 10.0712 1.71985C10.3788 1.59496 10.6403 1.49277 10.6523 1.49277C10.6643 1.49277 10.8433 1.58648 11.0502 1.70101C12.701 2.61528 14.0269 3.57884 14.7604 4.39741C14.9622 4.62265 15.0685 4.76566 15.1984 4.98676L15.2973 5.15515L10.6845 5.16357C7.09174 5.17012 6.06219 5.17655 6.02849 5.19265C5.95355 5.22844 5.88412 5.31139 5.86973 5.38235C5.85096 5.47494 5.92199 5.59507 6.02093 5.63811C6.0884 5.66744 6.28546 5.66872 10.7439 5.66872H15.3965V6.36752C15.3965 6.75186 15.3917 7.06632 15.3858 7.06632C15.354 7.06632 15.1219 6.99331 15.0762 6.96889C15.0468 6.95321 14.9115 6.86676 14.7755 6.77676C14.3947 6.52481 14.1694 6.44833 13.7587 6.43161C13.5836 6.42447 13.4838 6.4291 13.3595 6.45008C13.0598 6.50068 12.8947 6.57499 12.4602 6.85472C12.2898 6.96441 12.2116 7.00322 12.1066 7.03018C11.9182 7.07856 11.7924 7.08812 11.6282 7.0666C11.4255 7.04 11.2774 6.97445 11.0019 6.78924C10.5875 6.51075 10.3506 6.43531 9.89058 6.43538C9.42562 6.43543 9.2072 6.50603 8.76919 6.79786C8.49571 6.98009 8.35081 7.04214 8.14264 7.06625C7.95556 7.08792 7.71529 7.05773 7.56581 6.99378C7.51088 6.97027 7.35683 6.87796 7.22347 6.78865C6.80775 6.51024 6.56997 6.43462 6.11218 6.43528C5.64622 6.43592 5.42825 6.5064 4.99078 6.79786C4.86298 6.88301 4.70386 6.97424 4.63719 7.00061C4.39218 7.09749 4.05471 7.09759 3.80877 7.00087C3.74209 6.97465 3.57843 6.87968 3.44507 6.78985C3.02795 6.50883 2.79432 6.43487 2.32367 6.43487C1.99352 6.43487 1.84412 6.46294 1.59412 6.57194C1.41605 6.64958 1.02406 6.90913 1.0438 6.93634C1.05199 6.94762 1.13509 7.03779 1.22844 7.1367L1.39818 7.31652L1.59971 7.18272C1.71056 7.10914 1.83923 7.03274 1.88566 7.01296C2.17078 6.89148 2.59265 6.90672 2.84901 7.04778C2.89902 7.07531 3.03995 7.16395 3.16219 7.24477C3.5303 7.48816 3.81271 7.57496 4.23308 7.5739C4.65194 7.57284 4.94316 7.47704 5.34437 7.20838C5.47773 7.11909 5.61866 7.03249 5.65756 7.01594C5.92287 6.90303 6.3016 6.90329 6.56844 7.01654C6.60822 7.03343 6.75637 7.12328 6.89766 7.2162C7.3124 7.48896 7.57343 7.57346 8.00138 7.57346C8.42986 7.57346 8.71736 7.47987 9.12278 7.20838C9.25613 7.11909 9.39707 7.03249 9.43596 7.01594C9.70061 6.90332 10.0805 6.90332 10.3452 7.01592C10.3841 7.03247 10.525 7.1189 10.6584 7.20801C11.0703 7.48322 11.3592 7.57602 11.8 7.57479C12.2271 7.57359 12.4728 7.49141 12.9214 7.1997C13.0965 7.08582 13.2466 7.00211 13.3154 6.97999C13.4714 6.92982 13.767 6.91824 13.9413 6.95544C14.1082 6.99108 14.1803 7.02722 14.4772 7.22409C14.7874 7.42978 15.0304 7.52954 15.3048 7.56383L15.3965 7.57529V7.92069V8.26606L15.3322 8.25533C15.2017 8.23358 15.0433 8.15735 14.8204 8.00909C14.5365 7.82021 14.4037 7.75303 14.207 7.69869C13.7992 7.58605 13.3578 7.60741 12.9785 7.75811C12.91 7.78537 12.727 7.88959 12.572 7.98969C12.417 8.08981 12.2587 8.18421 12.2201 8.19946C11.9553 8.30417 11.5889 8.30235 11.3367 8.19509C11.2936 8.1768 11.1507 8.08981 11.019 8.00178C10.5962 7.71906 10.3395 7.63448 9.90069 7.63325C9.4609 7.63204 9.21065 7.71234 8.77929 7.99314C8.63482 8.08718 8.48279 8.17857 8.44145 8.19623C8.18925 8.30396 7.81402 8.30383 7.56014 8.1959C7.51817 8.17805 7.37524 8.09101 7.24251 8.00245C6.81749 7.71891 6.5613 7.63448 6.12228 7.63325C5.82464 7.63243 5.66594 7.66073 5.4252 7.75756C5.33629 7.7933 5.2076 7.85889 5.13921 7.90329C4.63725 8.22915 4.56867 8.25922 4.2937 8.27411C3.97615 8.29132 3.81952 8.23946 3.44622 7.99351C3.01282 7.70795 2.78355 7.63383 2.33377 7.63383C1.90611 7.63383 1.65459 7.70965 1.28073 7.95128C1.17091 8.02227 1.06853 8.09022 1.05322 8.10227C1.0299 8.12066 1.05382 8.15427 1.20191 8.31102C1.29898 8.41378 1.38483 8.50116 1.39267 8.5052C1.40051 8.50924 1.49271 8.45526 1.59757 8.38523C1.70244 8.3152 1.84573 8.23508 1.91603 8.20718C2.16122 8.10987 2.47452 8.1053 2.72576 8.19537C2.78557 8.21683 2.9537 8.31297 3.09938 8.40904C3.41446 8.61684 3.61736 8.70531 3.88399 8.75116C4.12157 8.79203 4.32439 8.79203 4.56196 8.75116C4.82659 8.70566 5.03149 8.61671 5.34427 8.41158C5.48868 8.31686 5.65241 8.22199 5.70807 8.20074C5.9571 8.10574 6.28168 8.10839 6.52992 8.20746C6.60022 8.23552 6.76683 8.33171 6.90019 8.42123C7.1909 8.61635 7.39684 8.7055 7.6624 8.75116C7.89997 8.79203 8.10279 8.79203 8.34037 8.75116C8.605 8.70566 8.8099 8.61671 9.12268 8.41158C9.26709 8.31686 9.43123 8.22183 9.48743 8.20039C9.64398 8.14066 9.8728 8.1163 10.0455 8.14098C10.2608 8.17175 10.3672 8.21844 10.6562 8.40904C11.0929 8.69704 11.3286 8.77364 11.7798 8.77415C12.0036 8.7744 12.0814 8.76758 12.213 8.73621C12.4448 8.681 12.6457 8.58635 12.9214 8.40249C13.0547 8.31356 13.2124 8.22258 13.2718 8.20034C13.5129 8.10995 13.8566 8.11009 14.0923 8.20064C14.1484 8.22221 14.312 8.31744 14.4558 8.41225C14.5997 8.50705 14.7786 8.61032 14.8535 8.64174C14.9989 8.7028 15.2486 8.76701 15.3406 8.76701H15.3965V9.49948V10.232H8.36508H1.33361V10.4845V10.7371H8.36508H15.3965V11.116V11.4948H8.00138H0.606215V8.58178V5.66872H2.51663C4.61242 5.66872 4.48538 5.67493 4.59437 5.567C4.69986 5.46252 4.65101 5.2702 4.50169 5.20228C4.43998 5.17419 4.33364 5.17138 3.03977 5.16357L1.64443 5.15515L3.21616 4.51528C4.08063 4.16336 4.78582 3.87092 4.78327 3.86542C4.74076 3.77387 4.53206 3.4292 4.51915 3.4292C4.48138 3.4292 0.148745 5.20293 0.103526 5.2369C-0.00576521 5.31902 5.38972e-05 5.13093 5.38972e-05 8.58434C5.38972e-05 11.784 9.4256e-05 11.7874 0.0416769 11.859C0.0719042 11.911 0.106859 11.9401 0.169294 11.9653L0.255268 12H8.00348H15.7517L15.8403 11.9621C15.8956 11.9385 15.943 11.902 15.966 11.8653C16.0016 11.8086 16.0029 11.6796 15.9978 8.54811L15.9926 5.28985L15.9262 5.12989C15.7567 4.72191 15.4454 4.28178 15.0267 3.85858C14.1682 2.99059 12.6129 1.91655 10.9556 1.04717C10.6751 0.900005 10.7297 0.89034 9.87699 1.23775L9.15965 1.52997L9.02 1.45015C8.64846 1.2378 8.43382 1.21564 7.72461 1.3164C7.66288 1.32518 7.65943 1.32274 7.6475 1.26185C7.55822 0.805945 7.4152 0.400811 7.25681 0.155086C7.20343 0.0722576 7.15136 0.00251246 7.1411 8.77195e-05C7.13083 -0.00235386 7.03585 0.0464778 6.92999 0.108561ZM6.97091 1.78409L7.10224 1.80442L7.11519 1.90538C7.12233 1.96092 7.12916 2.08402 7.13035 2.17894L7.13255 2.35153H7.4383H7.74405L7.73633 2.08709L7.72861 1.82262L7.89025 1.80144C7.97916 1.78977 8.13827 1.77539 8.24385 1.76946C8.46653 1.75695 8.5466 1.77766 8.71867 1.89223C9.05309 2.11492 9.13529 2.67332 8.89009 3.0567C8.70047 3.35322 8.34196 3.59154 7.92056 3.70126C7.70198 3.75817 7.31034 3.75816 7.09285 3.70124C6.58925 3.56946 6.21405 3.28629 6.04611 2.91128C5.97884 2.76108 5.96104 2.46683 6.00893 2.29666C6.07252 2.07072 6.22721 1.89812 6.4485 1.80622C6.56969 1.75589 6.7417 1.74862 6.97091 1.78409ZM2.10481 8.96238C1.93882 9.03132 1.8566 9.14153 1.85487 9.29742C1.85244 9.51671 2.04322 9.67507 2.31084 9.67592C2.72099 9.6772 2.91577 9.28189 2.62714 9.03401C2.48291 8.91015 2.29324 8.88414 2.10481 8.96238ZM5.95306 8.94238C5.61337 9.04722 5.5569 9.44006 5.85658 9.61349C5.94352 9.66381 5.96272 9.66787 6.11357 9.66787C6.2577 9.66787 6.28639 9.66248 6.36091 9.62141C6.49174 9.54934 6.55427 9.45747 6.563 9.32455C6.56935 9.22771 6.56272 9.20122 6.51208 9.12087C6.40752 8.95496 6.16413 8.87725 5.95306 8.94238ZM9.77689 8.94401C9.56392 9.00066 9.42602 9.20065 9.47476 9.38215C9.55521 9.68179 9.99214 9.78968 10.2452 9.57239C10.5765 9.28787 10.2304 8.82342 9.77689 8.94401ZM13.6184 8.93347C13.4001 8.99229 13.275 9.12801 13.275 9.30584C13.275 9.673 13.8273 9.82312 14.0962 9.529C14.257 9.353 14.1862 9.08274 13.9509 8.97439C13.8615 8.93319 13.6952 8.91274 13.6184 8.93347Z" fill="#E58A8A"/>
</svg>