<svg width="17" height="16" viewBox="0 0 17 16" fill="none" xmlns="http://www.w3.org/2000/svg">
<path d="M4.81336 13C4.51622 13 4.26471 12.8901 4.05882 12.6704C3.85294 12.4507 3.75 12.1823 3.75 11.8652V3.46278C3.75 3.14568 3.85294 2.87726 4.05882 2.65754C4.26471 2.43783 4.51622 2.32797 4.81336 2.32797H5.62784V1H6.5328V2.32797H10.9898V1H11.8722V2.32797H12.6866C12.9838 2.32797 13.2353 2.43783 13.4412 2.65754C13.6471 2.87726 13.75 3.14568 13.75 3.46278V11.8652C13.75 12.1823 13.6471 12.4507 13.4412 12.6704C13.2353 12.8901 12.9838 13 12.6866 13H4.81336ZM4.81336 12.0584H12.6866C12.7319 12.0584 12.7734 12.0382 12.8111 11.998C12.8488 11.9578 12.8677 11.9135 12.8677 11.8652V5.97386H4.63234V11.8652C4.63234 11.9135 4.65119 11.9578 4.6889 11.998C4.72662 12.0382 4.7681 12.0584 4.81336 12.0584ZM4.63234 5.03222H12.8677V3.46278C12.8677 3.41449 12.8488 3.37021 12.8111 3.32996C12.7734 3.28972 12.7319 3.2696 12.6866 3.2696H4.81336C4.7681 3.2696 4.72662 3.28972 4.6889 3.32996C4.65119 3.37021 4.63234 3.41449 4.63234 3.46278V5.03222ZM8.75 8.34004C8.60596 8.34004 8.48322 8.28592 8.38179 8.17767C8.28036 8.06942 8.22964 7.93844 8.22964 7.78472C8.22964 7.631 8.28036 7.50002 8.38179 7.39177C8.48322 7.28352 8.60596 7.22939 8.75 7.22939C8.89404 7.22939 9.01677 7.28352 9.11821 7.39177C9.21964 7.50002 9.27035 7.631 9.27035 7.78472C9.27035 7.93844 9.21964 8.06942 9.11821 8.17767C9.01677 8.28592 8.89404 8.34004 8.75 8.34004ZM6.39705 8.34004C6.25301 8.34004 6.13028 8.28592 6.02884 8.17767C5.92741 8.06942 5.8767 7.93844 5.8767 7.78472C5.8767 7.631 5.92741 7.50002 6.02884 7.39177C6.13028 7.28352 6.25301 7.22939 6.39705 7.22939C6.54109 7.22939 6.66383 7.28352 6.76526 7.39177C6.86669 7.50002 6.91741 7.631 6.91741 7.78472C6.91741 7.93844 6.86669 8.06942 6.76526 8.17767C6.66383 8.28592 6.54109 8.34004 6.39705 8.34004ZM11.1029 8.34004C10.9589 8.34004 10.8362 8.28592 10.7347 8.17767C10.6333 8.06942 10.5826 7.93844 10.5826 7.78472C10.5826 7.631 10.6333 7.50002 10.7347 7.39177C10.8362 7.28352 10.9589 7.22939 11.1029 7.22939C11.247 7.22939 11.3697 7.28352 11.4712 7.39177C11.5726 7.50002 11.6233 7.631 11.6233 7.78472C11.6233 7.93844 11.5726 8.06942 11.4712 8.17767C11.3697 8.28592 11.247 8.34004 11.1029 8.34004ZM8.75 10.8028C8.60596 10.8028 8.48322 10.7487 8.38179 10.6405C8.28036 10.5322 8.22964 10.4012 8.22964 10.2475C8.22964 10.0938 8.28036 9.9628 8.38179 9.85455C8.48322 9.74629 8.60596 9.69216 8.75 9.69216C8.89404 9.69216 9.01677 9.74629 9.11821 9.85455C9.21964 9.9628 9.27035 10.0938 9.27035 10.2475C9.27035 10.4012 9.21964 10.5322 9.11821 10.6405C9.01677 10.7487 8.89404 10.8028 8.75 10.8028ZM6.39705 10.8028C6.25301 10.8028 6.13028 10.7487 6.02884 10.6405C5.92741 10.5322 5.8767 10.4012 5.8767 10.2475C5.8767 10.0938 5.92741 9.9628 6.02884 9.85455C6.13028 9.74629 6.25301 9.69216 6.39705 9.69216C6.54109 9.69216 6.66383 9.74629 6.76526 9.85455C6.86669 9.9628 6.91741 10.0938 6.91741 10.2475C6.91741 10.4012 6.86669 10.5322 6.76526 10.6405C6.66383 10.7487 6.54109 10.8028 6.39705 10.8028ZM11.1029 10.8028C10.9589 10.8028 10.8362 10.7487 10.7347 10.6405C10.6333 10.5322 10.5826 10.4012 10.5826 10.2475C10.5826 10.0938 10.6333 9.9628 10.7347 9.85455C10.8362 9.74629 10.9589 9.69216 11.1029 9.69216C11.247 9.69216 11.3697 9.74629 11.4712 9.85455C11.5726 9.9628 11.6233 10.0938 11.6233 10.2475C11.6233 10.4012 11.5726 10.5322 11.4712 10.6405C11.3697 10.7487 11.247 10.8028 11.1029 10.8028Z"/>
</svg>