<svg width="16" height="14" viewBox="0 0 16 14" fill="none" xmlns="http://www.w3.org/2000/svg">
<path d="M13.9947 2.40559L14.0371 2.37914L13.9947 2.40559C14.0332 2.46744 14.0335 2.54097 13.9785 2.63604C13.9785 2.63607 13.9785 2.63609 13.9785 2.63612L11.8948 6.20704C11.8475 6.2781 11.7917 6.33254 11.7274 6.3715C11.6645 6.40968 11.5919 6.42933 11.5081 6.42933H6.25115L4.17415 2.3062H13.7765C13.8872 2.3062 13.9552 2.34228 13.9947 2.40559ZM14.9325 2.75282L14.9325 2.75283L14.933 2.75189C15.0148 2.60413 15.0545 2.456 15.0496 2.30821C15.0446 2.16039 14.9951 2.01633 14.9035 1.87662C14.7186 1.59453 14.4415 1.45413 14.08 1.45413H3.73447L2.99117 -0.0224814L2.97732 -0.05H2.94651H1H0.95V0V0.752065V0.802065H1H2.40995L5.31422 6.55257L4.1297 8.5451L4.12949 8.54546C4.01683 8.7386 3.96069 8.93362 3.96366 9.12985C3.96663 9.32606 4.02864 9.52009 4.14702 9.71134C4.38575 10.097 4.74945 10.2897 5.23024 10.2897H13.9053H13.9553V10.2397V9.48759V9.43759H13.9053H5.23024C5.09524 9.43759 4.99675 9.38001 4.92886 9.26043C4.89393 9.19891 4.87875 9.14265 4.87981 9.09089C4.88086 9.03946 4.898 8.98873 4.93388 8.93793L4.93406 8.93805L4.93635 8.93408L5.89057 7.28141H11.5541C11.7831 7.28141 11.9942 7.2273 12.1864 7.11875C12.3782 7.01044 12.5342 6.86091 12.654 6.67088L12.654 6.67089L12.6549 6.66935L14.9325 2.75282ZM4.34604 13.7102C4.58634 13.937 4.88216 14.05 5.23024 14.05C5.5783 14.05 5.87412 13.937 6.11443 13.7102C6.35487 13.4833 6.47574 13.2028 6.47574 12.8719C6.47574 12.5409 6.35487 12.2605 6.11443 12.0336C5.87412 11.8068 5.5783 11.6938 5.23024 11.6938C4.88216 11.6938 4.58634 11.8068 4.34604 12.0336C4.10559 12.2605 3.98472 12.5409 3.98472 12.8719C3.98472 13.2028 4.10559 13.4833 4.34604 13.7102ZM11.8256 13.7102C12.0659 13.937 12.3617 14.05 12.7098 14.05C13.0578 14.05 13.3537 13.937 13.594 13.7102C13.8344 13.4833 13.9553 13.2028 13.9553 12.8719C13.9553 12.5409 13.8344 12.2605 13.594 12.0336C13.3537 11.8068 13.0578 11.6938 12.7098 11.6938C12.3617 11.6938 12.0659 11.8068 11.8256 12.0336C11.5851 12.2605 11.4643 12.5409 11.4643 12.8719C11.4643 13.2028 11.5851 13.4833 11.8256 13.7102Z" stroke-width="0.1"/>
</svg>