<svg width="16" height="16" viewBox="0 0 16 16" fill="none" xmlns="http://www.w3.org/2000/svg">
<path fill-rule="evenodd" clip-rule="evenodd" d="M7.78363 0.0290103C7.68294 0.0689072 7.59705 0.17233 7.58073 0.273299C7.57296 0.321443 7.56978 0.671649 7.57371 1.05155C7.58039 1.70272 7.58345 1.74635 7.62692 1.81371C7.6523 1.85299 7.70839 1.90402 7.75156 1.92711C7.82945 1.96872 7.85712 1.96911 11.1558 1.97456L14.4816 1.98004V1.67052V1.36097L11.3711 1.35575L8.26068 1.35052L8.25449 0.984536L8.24831 0.618557H11.7842H15.3201V1.23454V1.85049L15.2046 2.09536C15.0444 2.43491 14.8843 2.87093 14.777 3.25971C14.5469 4.09379 14.4643 4.72437 14.2209 7.50515C14.086 9.04697 13.9375 10.6614 13.8122 11.9485C13.7691 12.3907 13.7338 12.7642 13.7338 12.7783C13.7337 12.7986 13.4761 12.8041 12.5213 12.8041H11.3088V13.1134V13.4227H12.3853H13.4618V14.4021V15.3814H11.9774H10.493V15.6907V16H12.1874C13.7929 16 13.8859 15.998 13.9607 15.9618C14.0041 15.9408 14.0626 15.8931 14.0907 15.8557L14.1417 15.7877V14.5969V13.4061L14.2196 13.3643C14.3614 13.2882 14.3657 13.2689 14.4618 12.2799C14.5894 10.9658 14.8044 8.6274 14.9236 7.25773C15.0841 5.41252 15.1691 4.66019 15.286 4.04823C15.4199 3.34726 15.6238 2.73243 15.9066 2.17753L16 1.99423V1.11536C16 0.113794 16.0032 0.132866 15.8179 0.0463918L15.7184 0L11.7856 0.000804154C8.56694 0.00146395 7.8402 0.00659789 7.78363 0.0290103ZM8.29467 2.75798C8.1264 2.80913 7.98605 2.85293 7.98281 2.85528C7.97955 2.85765 8.02211 3.00289 8.07736 3.17806C8.29075 3.85447 8.42261 4.66662 8.579 6.26804C8.61279 6.61392 8.64218 6.89893 8.64434 6.9014C8.64651 6.90388 8.79817 6.89517 8.98138 6.88206C9.2366 6.86379 9.3145 6.85157 9.3145 6.82979C9.3145 6.81416 9.28884 6.54454 9.2575 6.2306C9.11069 4.76045 8.98244 3.90076 8.82473 3.3299C8.74403 3.03781 8.63353 2.69303 8.61571 2.67783C8.60742 2.67074 8.46294 2.7068 8.29467 2.75798ZM11.5427 4.47625C11.0494 4.5512 10.5737 4.90429 10.3028 5.39662C9.97375 5.99472 9.95161 6.77091 10.2453 7.41278C10.4005 7.75194 10.7159 8.09775 11.0231 8.2655C11.4573 8.50266 11.9851 8.52654 12.4246 8.32891C12.916 8.1079 13.2861 7.66792 13.4504 7.10944C13.6721 6.35592 13.4988 5.55975 12.9909 4.99798C12.6277 4.59629 12.0716 4.39592 11.5427 4.47625ZM12.1305 5.15089C12.4418 5.2908 12.6853 5.6 12.8072 6.01031C12.8767 6.24425 12.8771 6.68159 12.8079 6.91753C12.6495 7.45757 12.2402 7.83821 11.814 7.84171C11.6144 7.84334 11.5036 7.81266 11.3312 7.7079C11.0875 7.55986 10.8714 7.25386 10.7731 6.91753C10.7079 6.69445 10.7133 6.19111 10.7833 5.97025C11.0048 5.27109 11.5969 4.91101 12.1305 5.15089ZM5.50716 5.23105C5.45431 5.24864 5.37014 5.32419 5.33504 5.38557C5.29121 5.46221 5.29556 5.55371 5.35049 5.71134C5.40432 5.86577 5.41463 6.07899 5.37365 6.19023C5.33737 6.28874 5.1727 6.42118 5.03462 6.46289C4.86309 6.51472 4.60451 6.55379 4.00079 6.61907C3.19797 6.70588 2.84463 6.77664 2.50435 6.91878C2.31029 6.99984 2.31165 6.98012 2.48228 7.24C2.56688 7.36882 2.64534 7.48515 2.65664 7.49854C2.6719 7.51658 2.71611 7.50777 2.82872 7.46419C3.11167 7.35468 3.36764 7.30821 4.13607 7.22676C4.68527 7.16858 5.0377 7.11196 5.24604 7.04845C5.6656 6.9206 5.97705 6.61874 6.05331 6.26604C6.06779 6.19909 6.08472 6.14433 6.09097 6.14433C6.15293 6.14433 6.75057 6.5992 7.01539 6.84792C7.46329 7.26858 7.74381 7.68522 7.84992 8.08742L7.86483 8.14394L4.44405 8.14928C1.02899 8.15464 1.02316 8.1547 0.960681 8.19715C0.846302 8.27485 0.807187 8.34159 0.809068 8.45573C0.810949 8.56911 0.850245 8.63505 0.960681 8.71006C1.02325 8.75258 1.02398 8.75258 4.94225 8.7579L8.86124 8.76324V9.06202V9.36082H7.1842H5.50716V9.6701V9.97938H7.1842H8.86124V10.2577V10.5361H6.69278C4.53445 10.5361 4.52385 10.5363 4.42574 10.5795C4.19397 10.6816 4.17652 10.9754 4.39438 11.1078L4.47138 11.1546H7.09792H9.72449L9.71653 12.5515C9.70932 13.8209 9.70488 13.9598 9.66803 14.0722C9.4616 14.7019 8.96946 15.1522 8.29762 15.326C8.12493 15.3707 8.12108 15.3708 5.28205 15.3767C2.1812 15.3831 2.25656 15.3855 1.90662 15.266C1.43726 15.1057 1.01584 14.7334 0.821396 14.3072C0.682315 14.0023 0.680003 13.9728 0.680003 12.4957V11.1546L1.92079 11.1546C3.11892 11.1545 3.16411 11.1531 3.23543 11.1135C3.46575 10.9858 3.45052 10.6751 3.20905 10.5753C3.12436 10.5403 3.04746 10.5369 2.32872 10.5365L1.54119 10.5361V10.2577V9.97938H1.96045H2.37971V9.6701V9.36082H1.33722H0.294737V9.6701V9.97938H0.578021H0.861305V10.2577V10.5361H0.571494C0.315519 10.5361 0.270057 10.5415 0.182239 10.5825C-0.0111188 10.6727 0.000121952 10.5654 0.000121952 12.3217C0.000121952 14.0123 0.00209354 14.0432 0.132132 14.3918C0.412221 15.1424 1.08943 15.7193 1.92407 15.9184C2.26322 15.9993 2.41055 16.0026 5.34852 15.9951C8.4508 15.9873 8.21835 15.9959 8.63461 15.873C9.42577 15.6395 10.0836 15.0076 10.3086 14.2649C10.3955 13.9783 10.4023 13.8339 10.4023 12.2848V10.7788L10.3528 10.6987C10.2717 10.5674 10.1708 10.5361 9.82858 10.5361H9.54112V10.2577V9.97938H9.82441H10.1077V9.6701V9.36082H9.82441H9.54112L9.54076 8.87113C9.5404 8.40241 9.5382 8.378 9.48977 8.30111C9.40261 8.1628 9.33516 8.14433 8.91715 8.14433H8.55307L8.50281 7.9433C8.35049 7.33439 7.89429 6.70691 7.19553 6.1452C6.79146 5.82035 6.36621 5.53951 5.9487 5.32171C5.78376 5.23567 5.72826 5.21678 5.64409 5.21812C5.58748 5.21901 5.52586 5.22484 5.50716 5.23105Z" />
</svg>