<svg width="12" height="16" viewBox="0 0 12 16" fill="none" xmlns="http://www.w3.org/2000/svg">
<path fill-rule="evenodd" clip-rule="evenodd" d="M2.72911 0.0156929C2.57608 0.0389596 2.37447 0.121964 2.25046 0.212773C2.11755 0.310094 1.99941 0.478328 1.966 0.617879C1.95271 0.673346 1.94489 1.41348 1.94489 2.61458V4.52314L1.686 4.65574C1.22737 4.89063 0.920973 5.12567 0.62314 5.47107C0.352675 5.78474 0.166806 6.13103 0.0600191 6.52022L0.0111797 6.69822L0.00557938 10.9896L0 15.2811L0.053996 15.4056C0.15457 15.6376 0.345933 15.8073 0.621787 15.9093C0.704398 15.9398 0.828409 15.9727 0.897388 15.9824C0.981647 15.9942 1.746 16 3.22735 16H5.4319V15.7549V15.5097L3.19704 15.5053L0.962183 15.501L0.861335 15.4551C0.805859 15.4298 0.734534 15.3788 0.702834 15.3417L0.645182 15.2743L0.639497 14.0995L0.633791 12.9247L2.4464 12.9202C4.21559 12.9159 4.26071 12.915 4.33074 12.883C4.37022 12.865 4.42253 12.8295 4.44698 12.8041L4.49146 12.7579L4.49694 10.3171C4.50222 7.96408 4.50099 7.87423 4.4631 7.81954C4.44146 7.78833 4.39788 7.74784 4.36627 7.72955C4.30961 7.69681 4.28102 7.69623 2.46959 7.69195L0.630452 7.68758L0.640279 7.20109C0.649367 6.75059 0.654079 6.70187 0.70387 6.54278C0.852205 6.06881 1.10293 5.72093 1.54225 5.37951C1.8123 5.16965 2.08781 5.01706 2.39526 4.90709L2.57889 4.84141V2.77494V0.708492L2.62644 0.635485C2.66118 0.582144 2.69939 0.552562 2.76829 0.525663C2.86085 0.489519 2.87632 0.488848 3.61362 0.489208C4.46667 0.489617 4.49148 0.492775 4.58857 0.613723L4.6394 0.677011L4.64519 1.91643L4.651 3.15585H4.05873H3.46649V3.40102V3.64619L4.05294 3.65054L4.6394 3.65489L4.64493 4.24808L4.65049 4.84126L4.84917 4.9146C5.53144 5.16644 6.08515 5.62427 6.36925 6.17146L6.45833 6.343L6.61609 6.30378C6.70286 6.2822 6.83776 6.24961 6.91582 6.23133L7.05778 6.19811L7.00425 6.08324C6.71994 5.473 6.15889 4.94228 5.43953 4.60308L5.29453 4.53471L5.28373 2.57313C5.27167 0.380074 5.28401 0.546132 5.1186 0.348005C4.97474 0.17568 4.73961 0.0523437 4.4832 0.0146948C4.34588 -0.00547949 2.86275 -0.00462866 2.72911 0.0156929ZM6.00295 7.00281C5.93297 7.02443 5.87811 7.0644 5.83992 7.12155C5.81835 7.15385 5.75167 7.59351 5.62774 8.52055C5.42133 10.0644 5.40684 10.2861 5.49196 10.5954C5.58045 10.917 5.74575 11.2155 5.9879 11.4912C6.14963 11.6754 6.52234 11.9661 6.76916 12.1006C7.18312 12.3262 7.77655 12.5134 8.21094 12.5555C8.26906 12.5612 8.33802 12.5692 8.36416 12.5734L8.41171 12.581V14.0451V15.5091L7.46599 15.5092C6.55958 15.5093 6.51742 15.5106 6.4514 15.5418C6.23632 15.6433 6.24887 15.889 6.47316 15.9679C6.55941 15.9982 6.6382 15.9993 8.71895 15.9996L10.8754 16L10.9681 15.9632C11.1942 15.8734 11.1943 15.6257 10.9684 15.5378C10.9018 15.5119 10.8084 15.5092 9.9703 15.5092L9.04571 15.5091V14.0451V12.581L9.09326 12.5733C9.1194 12.5691 9.20738 12.5576 9.28875 12.5478C9.96269 12.4663 10.6263 12.1936 11.1285 11.7917C11.679 11.3512 11.9672 10.8367 11.9972 10.2406C12.0082 10.0229 11.9941 9.88708 11.8264 8.59621C11.6239 7.03691 11.6333 7.07939 11.4775 7.01787C11.394 6.98486 11.3685 6.98457 8.72427 6.98558C7.01693 6.98625 6.03646 6.99246 6.00295 7.00281ZM11.1198 8.07262C11.1621 8.39659 11.2031 8.71136 11.2109 8.7721L11.225 8.88254H9.15267H7.08031V9.12797V9.3734H9.18213H11.2839L11.2952 9.42658C11.3013 9.45583 11.3221 9.60476 11.3412 9.75756C11.4078 10.2879 11.3524 10.6001 11.1292 10.9529C10.7636 11.5307 10.0311 11.9493 9.18308 12.0648C8.94174 12.0977 8.49948 12.0982 8.26187 12.0659C7.19571 11.9207 6.33172 11.2957 6.11717 10.5142C6.04498 10.2513 6.0514 10.1496 6.22218 8.84982C6.31029 8.17939 6.38814 7.59585 6.3952 7.55307L6.40803 7.47526L8.72542 7.47944L11.0428 7.48359L11.1198 8.07262ZM3.86803 10.306V12.4331H2.25132H0.634615V10.306V8.17898H2.25132H3.86803V10.306Z"/>
</svg>