<svg width="16" height="14" viewBox="0 0 16 14" fill="none" xmlns="http://www.w3.org/2000/svg">
<path fill-rule="evenodd" clip-rule="evenodd" d="M10.2199 0.011685C8.56544 0.161344 7.20618 0.912987 6.34624 2.15371C6.06199 2.56382 5.77714 3.15225 5.62053 3.65277C5.57671 3.79284 5.53911 3.88021 5.51325 3.90215C5.49135 3.92071 5.37337 4.01271 5.25107 4.10657C4.74232 4.49704 4.1903 4.9951 3.66668 5.5361C3.5761 5.62969 3.49737 5.70627 3.49172 5.70627C3.48608 5.70627 3.46482 5.66699 3.44448 5.61899C3.29211 5.25932 3.0046 4.78817 2.74795 4.47754C2.26711 3.89557 1.7257 3.53798 1.09262 3.38419C0.829156 3.32018 0.232142 3.30209 0.138803 3.35526C0.0437361 3.40943 0 3.49705 0 3.63336C0 3.74403 0.00417349 3.75417 0.139213 3.97219C0.645249 4.78911 1.01144 5.62396 1.15279 6.28299C1.31626 7.04511 1.23782 7.71075 0.880008 8.59828C0.670803 9.1172 0.450258 9.55052 0.146705 10.0392C0.00282224 10.2707 0 10.2776 0 10.3919C0 10.525 0.0347563 10.5981 0.130079 10.6654C0.182556 10.7024 0.216936 10.7061 0.487477 10.7038C1.06422 10.6989 1.53061 10.5572 1.99861 10.2448C2.55469 9.87356 3.07191 9.22817 3.41946 8.47186C3.47706 8.34645 3.48683 8.33471 3.51223 8.36009C3.52785 8.37568 3.60254 8.45295 3.67823 8.5318C3.8854 8.74765 4.36756 9.20654 4.61821 9.42641C5.18394 9.92266 5.7119 10.3132 6.29444 10.6663C6.87468 11.018 7.31739 11.2291 7.88516 11.4249C8.54151 11.6513 9.04758 11.7419 9.74682 11.7583L10.223 11.7695L10.1146 11.9021C9.77416 12.3184 9.28273 12.7213 8.81039 12.9712C8.63657 13.0631 8.19979 13.2473 8.18828 13.2335C8.18488 13.2294 8.19877 13.1868 8.21914 13.1389C8.28451 12.9851 8.37145 12.6954 8.41652 12.4814C8.44063 12.3669 8.4579 12.2703 8.45491 12.2667C8.44829 12.2588 7.99683 12.1543 7.96912 12.1543C7.95826 12.1543 7.9442 12.1935 7.93786 12.2415C7.91911 12.3832 7.81118 12.7496 7.74581 12.8935C7.65141 13.1014 7.56431 13.2279 7.40705 13.3855C7.29292 13.5 7.25765 13.5484 7.2416 13.6127C7.20106 13.7752 7.29355 13.9643 7.42843 13.9946C7.56518 14.0255 8.08501 13.919 8.45434 13.7846C8.89364 13.6248 9.35503 13.3635 9.73745 13.0579C10.222 12.6708 10.5407 12.3092 10.9632 11.6668C10.9649 11.6642 11.0312 11.6474 11.1105 11.6295C12.6076 11.2925 14.1006 10.2742 15.3427 8.74276C15.795 8.18513 15.8986 8.02792 15.8986 7.8993C15.8986 7.73541 15.8528 7.67989 15.5267 7.44815C15.3832 7.34615 15.2657 7.25578 15.2657 7.2473C15.2657 7.23884 15.4196 7.06692 15.6076 6.86522C15.7995 6.65938 15.9608 6.4698 15.9753 6.433C16.0096 6.34624 16.0081 6.24437 15.9713 6.16344C15.8723 5.94579 15.1384 5.02584 14.7295 4.60695C13.933 3.79101 13.1064 3.19375 12.2302 2.80106C12.0486 2.71966 12.0421 2.71469 12.0304 2.64581C11.8647 1.67471 11.7127 1.16302 11.4388 0.654657C11.3205 0.434973 11.0661 0.128673 10.9392 0.0530426C10.8487 -0.000923357 10.8384 -0.0023608 10.5715 0.00113015C10.4205 0.00310151 10.2623 0.00784494 10.2199 0.011685ZM10.8338 0.731663C11.006 0.939169 11.1594 1.25565 11.2878 1.66826C11.3497 1.86737 11.4522 2.29257 11.4759 2.44909C11.4866 2.51905 11.4845 2.52718 11.4588 2.51535C11.4022 2.4893 10.9959 2.39658 10.7864 2.36192L10.5747 2.32688L10.4516 1.89635C10.3393 1.50362 10.1777 0.984983 10.0977 0.760761C10.0803 0.711826 10.066 0.663733 10.066 0.653897C10.066 0.633793 10.1934 0.623526 10.5163 0.617612L10.7358 0.613587L10.8338 0.731663ZM9.60617 0.942147C9.68711 1.17397 9.99015 2.14061 10.0062 2.21815L10.0174 2.27234L9.70388 2.28803C9.53145 2.29668 9.34903 2.30462 9.29853 2.30573L9.20672 2.30772L9.14013 2.04077C9.10351 1.89394 9.0236 1.59362 8.96255 1.37336C8.90151 1.15312 8.85156 0.963236 8.85156 0.951387C8.85156 0.921694 9.45271 0.733429 9.51552 0.74347C9.52792 0.745442 9.56873 0.834851 9.60617 0.942147ZM8.48924 1.6198C8.67124 2.28456 8.69871 2.40126 8.67514 2.4096C8.66399 2.41356 8.57019 2.43621 8.46671 2.45997C8.36323 2.48373 8.19389 2.53 8.09041 2.56281C7.98693 2.59563 7.89723 2.61632 7.89109 2.60885C7.88495 2.60135 7.86285 2.52129 7.84199 2.43093C7.80506 2.27105 7.71062 1.94348 7.63979 1.72962L7.60475 1.62381L7.67212 1.57029C7.84835 1.43026 8.33906 1.13902 8.35736 1.16356C8.36342 1.17167 8.42275 1.37698 8.48924 1.6198ZM7.33911 2.56098C7.39496 2.78192 7.39925 2.83137 7.36258 2.83137C7.32767 2.83137 6.84264 3.07107 6.57239 3.22188C6.41482 3.30983 6.28589 3.37735 6.28589 3.37197C6.28589 3.36659 6.31796 3.29587 6.35716 3.21484C6.54923 2.81788 6.76909 2.47775 7.02976 2.17443L7.1796 2.00005L7.22995 2.16416C7.25765 2.25442 7.30677 2.43299 7.33911 2.56098ZM10.2285 2.91398C11.8355 3.03643 13.3398 3.87381 14.6927 5.399C14.9019 5.63485 15.34 6.18182 15.3689 6.24332C15.382 6.27106 15.3131 6.3547 14.9924 6.70053C14.5697 7.15635 14.5459 7.19339 14.5715 7.35675C14.59 7.47552 14.6522 7.54019 14.9499 7.75022C15.105 7.85967 15.2358 7.95674 15.2405 7.96596C15.2452 7.97516 15.1046 8.15663 14.9279 8.36921C14.451 8.9431 14.0471 9.34628 13.5553 9.73938C13.3066 9.93816 12.9683 10.1829 12.9423 10.1829C12.9359 10.1829 12.922 10.1667 12.9115 10.147C12.901 10.1272 12.8298 9.99388 12.7534 9.85071C12.3197 9.03873 12.0424 8.16727 11.9475 7.31827C11.92 7.07152 11.9247 6.46608 11.9563 6.20623C12.0202 5.68017 12.2017 5.05806 12.4028 4.67553L12.4443 4.5966L12.3883 4.55674C12.3575 4.53483 12.2592 4.46176 12.1699 4.39439L12.0074 4.2719L11.9574 4.3679C11.8605 4.55378 11.6925 5.00087 11.6165 5.27503C11.5273 5.59698 11.463 5.94901 11.4335 6.27651C11.4034 6.61205 11.4206 7.31085 11.4667 7.6227C11.6011 8.5316 11.89 9.38228 12.3626 10.2611C12.4297 10.3859 12.4596 10.4593 12.4487 10.4724C12.4226 10.5037 12.0476 10.6817 11.8106 10.7753C11.4203 10.9295 11.0768 11.024 10.6304 11.0999C10.3189 11.1529 9.41661 11.1531 9.09102 11.1003C8.62515 11.0247 8.15284 10.8936 7.70358 10.7152C6.40588 10.1999 5.03292 9.17679 3.69037 7.72453C3.6034 7.63046 3.51245 7.54444 3.48828 7.53341C3.39031 7.48871 3.2695 7.5208 3.20461 7.6088C3.18918 7.6297 3.13889 7.74848 3.09286 7.87271C2.75055 8.79664 2.12347 9.56365 1.45388 9.87734C1.30156 9.9487 0.990126 10.047 0.848364 10.0685L0.756 10.0825L0.787951 10.0249C1.18053 9.3176 1.49957 8.54455 1.63124 7.98161C1.71522 7.62253 1.74081 7.39575 1.74081 7.01024C1.74081 6.49276 1.67543 6.11779 1.48486 5.54199C1.34547 5.1209 1.02333 4.40306 0.818979 4.05829C0.787182 4.00461 0.761149 3.95634 0.761149 3.951C0.761149 3.92428 1.13584 4.0209 1.32457 4.09628C2.01636 4.37262 2.63128 5.06124 3.0384 6.01553L3.12986 6.22991L3.13855 6.5482L3.14722 6.8665L3.39951 6.87218L3.6518 6.87785V6.62254V6.36721L3.88699 6.12097C5.47138 4.46218 7.04138 3.43454 8.55121 3.0681C9.17665 2.9163 9.66732 2.87121 10.2285 2.91398ZM10.237 4.1807C10.2041 4.19949 10.1111 4.29426 10.0304 4.39129C9.77101 4.70299 9.65964 5.04886 9.67706 5.48854C9.68964 5.80588 9.78425 6.14292 9.94016 6.42577C10.0488 6.62285 10.2974 6.60638 10.3803 6.39663C10.4246 6.28451 10.4139 6.2134 10.3158 5.96793C10.209 5.70083 10.1857 5.59932 10.1857 5.40019C10.1857 5.15045 10.2845 4.91483 10.4609 4.74381C10.5718 4.63635 10.6133 4.55446 10.6133 4.44369C10.6131 4.21947 10.4135 4.07998 10.237 4.1807ZM13.3928 5.51915C13.3045 5.54661 13.236 5.59938 13.1721 5.68898C13.0417 5.87188 13.0417 6.13623 13.1722 6.31924C13.262 6.44514 13.3517 6.49535 13.4869 6.49535C13.7226 6.49535 13.8974 6.28614 13.8974 6.00403C13.8974 5.81202 13.8151 5.64961 13.6732 5.56183C13.6009 5.51706 13.4656 5.49646 13.3928 5.51915ZM8.57789 5.86603C8.46384 5.94041 8.25239 6.34441 8.16711 6.65088C8.11372 6.84272 8.10102 7.21436 8.14095 7.41566C8.1959 7.69264 8.37173 8.04564 8.53068 8.19811C8.61589 8.27984 8.74809 8.2954 8.83033 8.23341C8.93648 8.15338 8.98179 7.99336 8.93771 7.85415C8.92865 7.82552 8.8799 7.74815 8.82938 7.68217C8.69054 7.50086 8.64054 7.3618 8.63225 7.1339C8.62325 6.88691 8.66878 6.72618 8.82866 6.44062C8.93212 6.25581 8.94563 6.22047 8.94563 6.13475C8.94563 5.91427 8.73734 5.76204 8.57789 5.86603ZM10.0574 7.56288C9.98872 7.59953 9.94445 7.66134 9.87044 7.82406C9.6194 8.376 9.60723 8.97004 9.83762 9.42922C9.91443 9.58231 10.097 9.81746 10.2019 9.89837C10.3477 10.0108 10.5135 9.96484 10.5883 9.79132C10.6182 9.72181 10.6208 9.60194 10.5938 9.53983C10.583 9.51516 10.511 9.42105 10.4338 9.3307C10.2513 9.11728 10.1998 8.99323 10.1892 8.74177C10.18 8.52593 10.218 8.35348 10.3327 8.08966C10.4167 7.89655 10.4263 7.81028 10.3763 7.69835C10.3411 7.61949 10.2237 7.53341 10.1531 7.53469C10.1287 7.53514 10.0856 7.54781 10.0574 7.56288Z"/>
</svg>