<svg width="16" height="14" viewBox="0 0 16 14" fill="none" xmlns="http://www.w3.org/2000/svg">
<path fill-rule="evenodd" clip-rule="evenodd" d="M7.59001 0.063495C6.73227 0.252349 6.07152 0.479582 5.7489 0.696666C5.38889 0.938899 5.12984 1.34897 4.98586 1.90458C4.94352 2.06792 4.94179 2.07084 4.91321 2.02706C4.84332 1.92001 4.60763 1.65216 4.48792 1.54376C4.24024 1.3195 3.92472 1.12837 3.7771 1.11322C3.62154 1.09725 3.48391 1.22695 3.48391 1.38951C3.48391 1.51409 3.54089 1.59087 3.69109 1.66872C4.16264 1.91309 4.63313 2.48638 4.84815 3.07865C4.93322 3.31299 4.97845 3.33419 5.36264 3.31985C6.07954 3.29311 6.71818 3.08202 7.12199 2.73835C7.43095 2.47539 7.63717 2.13418 7.87471 1.49289C7.97017 1.23519 8.14911 0.626166 8.19532 0.401771C8.22627 0.251465 8.2262 0.249811 8.18344 0.161512C8.13481 0.0609952 8.03696 -0.00225051 7.93371 6.12982e-05C7.8997 0.000813105 7.74504 0.029363 7.59001 0.063495ZM14.7655 0.411018C14.6945 0.454303 14.7128 0.423065 13.9883 1.73722C13.6748 2.30578 13.4172 2.77297 13.4157 2.77541C13.4142 2.77786 13.3183 2.74455 13.2027 2.70138C13.0418 2.64133 12.9945 2.61601 13.0009 2.59355C13.0055 2.57742 13.0997 2.1687 13.2102 1.68533L13.4111 0.806449L13.3787 0.72157C13.2986 0.511797 13.0101 0.479056 12.8877 0.665842C12.8701 0.692644 12.7686 1.09268 12.662 1.55482C12.5554 2.01695 12.4638 2.41236 12.4586 2.43353L12.449 2.47202L12.2558 2.43729C11.9895 2.38942 11.4997 2.38643 11.2921 2.4314C10.926 2.51072 10.653 2.65791 10.4231 2.89993C10.2465 3.08593 10.1703 3.22122 9.96634 3.71072C8.89732 6.27661 8.03134 9.04418 7.61977 11.21C7.45108 12.0977 7.32395 13.0884 7.35493 13.2737C7.40473 13.5715 7.59245 13.8556 7.80108 13.949C7.91372 13.9995 8.17882 14.0161 8.33016 13.9823C8.52308 13.9392 8.63015 13.8761 8.912 13.6391C10.4565 12.3407 12.1162 10.4993 13.7951 8.22156C14.4725 7.30249 15.2634 6.14195 15.373 5.90633C15.5516 5.52197 15.5575 5.06493 15.389 4.64707C15.2802 4.37734 15.117 4.13101 14.839 3.81687L14.7401 3.70525L15.3369 3.14722C15.6652 2.84029 15.9486 2.56254 15.9666 2.53C16.0294 2.4171 16.002 2.27757 15.8981 2.18047C15.8382 2.12448 15.6741 2.10431 15.6008 2.14393C15.5748 2.15799 15.276 2.42992 14.9369 2.7482C14.5978 3.06646 14.3102 3.32299 14.2979 3.31827C14.2856 3.31354 14.1962 3.25238 14.0993 3.18235C14.0023 3.11232 13.9198 3.05277 13.9159 3.05001C13.9089 3.04505 13.9768 2.92068 14.7762 1.47501C15.2207 0.67118 15.2257 0.658926 15.1585 0.525311C15.0882 0.385249 14.8983 0.330029 14.7655 0.411018ZM7.53282 0.717586C7.50475 0.847686 7.31782 1.39004 7.23352 1.58604C7.18479 1.69928 7.10643 1.85872 7.05937 1.94031C6.78792 2.41101 6.31802 2.65806 5.51621 2.75164L5.4156 2.76336L5.42811 2.64499C5.49873 1.976 5.686 1.48016 5.95882 1.2397C6.13485 1.08454 6.61986 0.888434 7.23295 0.724502C7.54829 0.640187 7.54955 0.64015 7.53282 0.717586ZM11.9765 2.96881C12.5212 3.0262 13.2134 3.26465 13.6223 3.53583C14.2268 3.93671 14.7058 4.44815 14.8759 4.87427C14.9328 5.01694 14.9366 5.04094 14.9369 5.26132C14.9373 5.46572 14.9315 5.51082 14.8924 5.60822C14.8437 5.72986 14.347 6.48319 13.9006 7.11264C13.7466 7.32973 13.5957 7.54382 13.5651 7.5884L13.5096 7.66949L13.331 7.65932C13.0039 7.64067 12.6625 7.53142 12.3 7.32935C12.1354 7.23759 12.0805 7.21602 12.0119 7.21602C11.7971 7.21602 11.6627 7.46141 11.7796 7.63992C11.8803 7.79363 12.5608 8.10546 12.951 8.17675C13.0386 8.19275 13.086 8.2099 13.0826 8.22445C13.0761 8.25259 12.7056 8.73649 12.3096 9.23402L12.0118 9.60832L11.8586 9.59727C11.6177 9.57988 11.3557 9.49386 11.076 9.34025C11.019 9.30899 10.9443 9.28348 10.9097 9.28348C10.6986 9.28347 10.5602 9.51077 10.6615 9.6911C10.7055 9.76934 10.781 9.82362 10.9949 9.93053C11.1357 10.0009 11.4486 10.1105 11.5088 10.1105C11.599 10.1105 11.5836 10.1311 11.0282 10.7589C10.6301 11.2089 10.4776 11.3711 9.96021 11.8942C9.2942 12.5676 8.43167 13.347 8.28122 13.4114C8.19342 13.4489 8.04433 13.4451 8.00862 13.4043C7.94431 13.331 7.91197 13.2391 7.91442 13.1365C7.9243 12.7199 8.18609 11.1285 8.3649 10.3979L8.39807 10.2624L8.50143 10.3491C8.73954 10.5489 9.07591 10.7307 9.20753 10.7307C9.35038 10.7307 9.47853 10.5993 9.47859 10.4527C9.47864 10.3336 9.41845 10.2545 9.26832 10.1765C8.98706 10.0304 8.75306 9.8461 8.60879 9.65691L8.55895 9.59156L8.68125 9.14425C8.79562 8.72593 9.06901 7.80199 9.12537 7.64327L9.15051 7.57247L9.2441 7.66834C9.48537 7.91555 9.82665 8.15841 10.1709 8.32779C10.3419 8.41199 10.3758 8.42235 10.455 8.41473C10.5725 8.40344 10.6517 8.34529 10.6915 8.24092C10.7574 8.06845 10.687 7.95123 10.4491 7.83727C10.2374 7.73587 9.99201 7.57826 9.81209 7.42818C9.6663 7.30653 9.43211 7.05094 9.38387 6.9608C9.35783 6.91215 9.39752 6.78532 9.69907 5.95334L9.8604 5.50825L9.96549 5.59882C10.0895 5.70573 10.2277 5.79527 10.4088 5.88609C10.5846 5.97422 10.6397 5.98437 10.7351 5.94618C10.9005 5.88 10.9628 5.72248 10.8851 5.56668C10.8455 5.48724 10.8225 5.46853 10.6559 5.38001C10.554 5.3259 10.4246 5.24608 10.3682 5.20262C10.2479 5.10972 10.0988 4.94879 10.0988 4.91175C10.0988 4.8832 10.3681 4.20364 10.5467 3.78172C10.6089 3.63471 10.6903 3.4685 10.7276 3.41236C10.9659 3.05317 11.3803 2.90602 11.9765 2.96881ZM2.54524 3.75834C1.41639 3.87401 0.614186 4.56507 0.20057 5.77819C0.10347 6.06301 0.0513218 6.28193 0.0237349 6.52059C-0.00804276 6.79557 -0.00787364 7.60538 0.0240167 7.89264C0.207391 9.5443 0.836272 10.83 1.99372 11.9197C2.21746 12.1303 2.35792 12.2299 2.57431 12.3313C2.80996 12.4417 2.98261 12.4812 3.27719 12.4921C3.58375 12.5035 3.78689 12.4729 4.05827 12.3747C4.673 12.1521 4.92615 12.0918 5.17521 12.1087C5.35249 12.1208 5.7187 12.2152 5.95508 12.3098C6.16883 12.3954 6.39227 12.4602 6.49004 12.4651L6.57399 12.4693L6.60828 12.217C6.62713 12.0783 6.63897 11.9554 6.63459 11.944C6.63021 11.9326 6.5728 11.9121 6.50701 11.8985C6.44124 11.8849 6.28169 11.8337 6.15246 11.7847C5.73659 11.627 5.35642 11.5388 5.09288 11.539C4.83503 11.5391 4.38058 11.6472 3.99498 11.8003C3.74865 11.898 3.5783 11.9336 3.35636 11.9336C3.04791 11.9336 2.80079 11.8509 2.55356 11.665C2.40133 11.5506 1.96615 11.1028 1.78235 10.8716C1.0718 9.97753 0.669548 8.91068 0.57134 7.65968C0.53618 7.21158 0.556851 6.66165 0.620538 6.35144C0.663177 6.14383 0.785722 5.79031 0.890187 5.57366C1.16976 4.99375 1.58492 4.59787 2.09563 4.42414C2.5213 4.27933 3.08025 4.27564 3.55908 4.4145C3.6884 4.452 4.10807 4.52537 4.49869 4.57879C4.81212 4.62164 5.36456 4.62144 5.69199 4.57832C6.07126 4.5284 6.48335 4.45604 6.66919 4.40676C6.76221 4.38208 6.90174 4.35154 6.97926 4.33889C7.16684 4.30823 7.59316 4.30833 7.76853 4.33906C7.96833 4.37405 8.22507 4.46136 8.38309 4.54804C8.45753 4.58886 8.52315 4.62228 8.52892 4.62228C8.53467 4.62228 8.60646 4.5188 8.68845 4.39229L8.83753 4.16231L8.74935 4.10718C8.32784 3.84367 7.73362 3.71386 7.15168 3.75816C6.89935 3.77736 6.77634 3.79847 6.44368 3.87967C6.00212 3.98746 5.29721 4.06925 4.9591 4.05196C4.5871 4.03292 3.99936 3.9459 3.67183 3.86136C3.30613 3.76699 2.85956 3.72615 2.54524 3.75834ZM2.44981 5.14992C2.23627 5.2532 2.09336 5.35855 1.91869 5.54148C1.67275 5.79903 1.50452 6.09977 1.37189 6.519C1.28706 6.78713 1.28236 6.90548 1.35323 6.9897C1.47564 7.13522 1.66057 7.14232 1.78643 7.00636C1.80886 6.98211 1.85022 6.88195 1.87834 6.78373C1.98004 6.4285 2.12375 6.14704 2.30573 5.94657C2.42822 5.81164 2.51177 5.75044 2.72812 5.63722C2.91058 5.54174 2.9582 5.48947 2.97022 5.37153C2.98678 5.20894 2.8619 5.07337 2.69556 5.07337C2.63168 5.07337 2.5654 5.09402 2.44981 5.14992Z"/>
</svg>