<svg width="16" height="14" viewBox="0 0 16 14" fill="none" xmlns="http://www.w3.org/2000/svg">
<path fill-rule="evenodd" clip-rule="evenodd" d="M6.22548 1.53045L4.48157 3.05932L4.47602 2.38288L4.47047 1.70644H3.39921H2.32794V3.32789V4.94933L1.20232 5.93517C0.583233 6.4774 0.0620344 6.94352 0.0441121 6.97097C-0.0424111 7.10348 0.00282552 7.30176 0.140658 7.39416C0.22155 7.4484 0.374132 7.45797 0.453448 7.41379C0.479859 7.39908 1.05413 6.9036 1.72963 6.31275L2.95781 5.23847L2.95804 3.78876L2.95827 2.33904H3.39931H3.84035L3.8458 3.39448L3.85124 4.44989L5.92616 2.63441L8.00107 0.818945L9.23539 1.89985C10.7377 3.21545 11.5832 3.95625 13.7789 5.88075C14.7092 6.69611 15.4987 7.3809 15.5333 7.40253C15.6771 7.49222 15.8898 7.42915 15.9705 7.27291C16.0146 7.18751 16.0085 7.04878 15.9572 6.97021C15.9106 6.89886 8.02889 -0.00193957 7.99618 4.08954e-07C7.98145 0.000864964 7.18463 0.689579 6.22548 1.53045ZM5.1689 4.87116L2.34895 7.40256V10.7013V14H4.64966H6.95036V12.2498V10.4996H7.9904H9.03044V12.2498V14H11.3311H13.6318V10.7006V7.40125L10.8637 4.91976C9.34116 3.55495 8.07146 2.41612 8.04215 2.38902L7.98885 2.33976L5.1689 4.87116ZM10.6866 5.60702L13.0015 7.68362V10.5255V13.3674H11.3311H9.66077V11.6172V9.867H7.9904H6.32003V11.6172V13.3674H4.64966H2.97928L2.97941 10.526L2.97956 7.68453L5.48432 5.43601L7.98908 3.18751L8.18034 3.35897C8.28552 3.45329 9.41333 4.4649 10.6866 5.60702Z" />
</svg>