<svg width="16" height="16" viewBox="0 0 16 16" fill="none" xmlns="http://www.w3.org/2000/svg">
<path fill-rule="evenodd" clip-rule="evenodd" d="M7.83712 0.0205283C7.70652 0.070183 7.61223 0.157989 7.536 0.300978L7.49793 0.372377L7.49343 1.27153L7.48892 2.17068L7.1066 1.73485C6.89632 1.49514 6.69943 1.28319 6.66904 1.26386C6.57132 1.20163 6.46018 1.17425 6.34023 1.18283C6.06482 1.20253 5.88677 1.40242 5.88631 1.69244C5.88615 1.79314 5.8936 1.82919 5.9292 1.90014C5.95703 1.95558 6.24122 2.29693 6.73124 2.86348L7.49018 3.74096L7.48606 4.7452L7.48195 5.74943L7.2961 5.81169C7.1263 5.86858 6.92639 5.95976 6.81455 6.03135L6.77045 6.0596L6.07363 5.36299L5.37681 4.66639L5.2908 3.51829C5.232 2.73352 5.197 2.34679 5.18021 2.29624C5.12704 2.13621 5.00114 1.99026 4.85396 1.91806C4.72947 1.85699 4.57515 1.85738 4.45694 1.91905C4.29176 2.00525 4.17519 2.16837 4.156 2.34024C4.15125 2.38266 4.16231 2.64588 4.18058 2.9252C4.19883 3.20452 4.21377 3.44883 4.21377 3.46813C4.21377 3.49422 4.05507 3.34482 3.59449 2.88512C2.9029 2.19484 2.904 2.1957 2.70353 2.1953C2.50217 2.1949 2.3362 2.29985 2.24484 2.48539C2.20094 2.57455 2.19309 2.60791 2.19349 2.7037C2.19434 2.90657 2.1898 2.90077 2.91573 3.62757L3.566 4.27861H3.49894C3.46206 4.27861 3.20327 4.2638 2.92387 4.2457C2.64447 4.22758 2.38707 4.21697 2.35186 4.22212C2.26187 4.23527 2.13342 4.31306 2.0661 4.39517C1.97403 4.50749 1.9383 4.60394 1.93763 4.74193C1.93689 4.89065 1.98306 4.98945 2.10412 5.09826C2.25149 5.23071 2.22051 5.2258 3.52897 5.32384L4.69967 5.41153L5.37564 6.08717C5.74743 6.45877 6.05162 6.76812 6.05162 6.77462C6.05162 6.78111 6.0304 6.82092 6.00445 6.86308C5.94544 6.95894 5.87028 7.13305 5.80282 7.33011L5.75087 7.48188L4.74604 7.48599L3.74122 7.49011L2.8628 6.73128C2.28129 6.22895 1.95466 5.95759 1.89648 5.92848C1.78237 5.8714 1.61787 5.86007 1.49509 5.90084C1.38811 5.93636 1.27073 6.05084 1.21295 6.17603C1.15285 6.30629 1.15227 6.47094 1.21152 6.59725C1.24938 6.678 1.30034 6.72805 1.71117 7.08802L2.16865 7.48885L1.26945 7.49335L0.370259 7.49786L0.285814 7.54234C0.181903 7.59707 0.0884926 7.69117 0.0396377 7.79034C-0.0132126 7.89759 -0.0132126 8.10464 0.0396377 8.21189C0.0884926 8.31106 0.181903 8.40516 0.285814 8.45989L0.370259 8.50437L1.30048 8.51236L2.23071 8.52035L1.85184 8.85104C1.36228 9.27835 1.34073 9.2997 1.29157 9.40562C1.25805 9.47783 1.25005 9.51937 1.24971 9.62272C1.24934 9.73325 1.25577 9.76351 1.29721 9.84639C1.41595 10.0839 1.73209 10.1824 1.95839 10.0523C2.0234 10.0149 2.57784 9.54369 3.70913 8.56428L3.80601 8.48041H4.76151C5.51227 8.48041 5.71822 8.48469 5.72263 8.50038C5.78831 8.73384 5.91164 9.02866 5.98912 9.13744L6.02423 9.18674L5.3214 9.88935L4.61856 10.592L3.47024 10.6778L2.32192 10.7636L2.22337 10.8121C2.09923 10.8732 1.98978 10.9888 1.92344 11.1289C1.82827 11.3299 1.86384 11.5312 2.02257 11.6899C2.09966 11.767 2.23472 11.8336 2.33694 11.8451C2.38034 11.8499 2.64447 11.839 2.92387 11.8207C3.20327 11.8025 3.44758 11.7875 3.46679 11.7875C3.49264 11.7875 3.33563 11.9542 2.86101 12.4306C2.14534 13.1489 2.15934 13.1306 2.16108 13.3458C2.16218 13.4842 2.20602 13.5841 2.31225 13.6904C2.40777 13.786 2.51519 13.8243 2.68755 13.8241C2.92293 13.8239 2.89325 13.8463 3.62646 13.1159L4.27769 12.4671V12.5341C4.27769 12.571 4.26283 12.8297 4.24468 13.109C4.22651 13.3883 4.21604 13.6452 4.22139 13.6798C4.26312 13.95 4.59179 14.1591 4.85467 14.0827C5.02942 14.0319 5.15451 13.9115 5.21188 13.7388C5.22893 13.6875 5.26376 13.3018 5.32383 12.499L5.41104 11.3336L6.08693 10.6579L6.76281 9.98222L6.95458 10.0775C7.06004 10.1299 7.22185 10.198 7.31415 10.2287L7.48195 10.2846L7.48606 11.2898L7.49018 12.295L6.71563 13.1929C5.86651 14.1772 5.87583 14.1641 5.87583 14.3655C5.87583 14.571 5.96777 14.7095 6.17947 14.823C6.26969 14.8713 6.2981 14.8787 6.39556 14.8788C6.49031 14.8789 6.52437 14.8708 6.61452 14.8264C6.71478 14.7771 6.74444 14.7475 7.10161 14.3404L7.48195 13.9069L7.48994 14.7684L7.49793 15.6299L7.54242 15.7143C7.59718 15.8182 7.69131 15.9115 7.7905 15.9604C7.89779 16.0132 8.1049 16.0132 8.21219 15.9604C8.31138 15.9115 8.40551 15.8182 8.46026 15.7143L8.50476 15.6299L8.51275 14.6999L8.52074 13.77L8.85153 14.1487C9.27897 14.6381 9.30032 14.6597 9.40628 14.7088C9.58008 14.7894 9.8278 14.756 9.95687 14.6345C10.119 14.4819 10.1656 14.2361 10.071 14.0322C10.0462 13.9787 9.78277 13.662 9.27363 13.0736L8.51331 12.1949L8.51303 11.2416L8.51275 10.2882L8.67544 10.2377C8.76492 10.2099 8.92834 10.1409 9.0386 10.0843L9.23905 9.98139L9.91535 10.6575L10.5916 11.3336L10.6788 12.4988C10.7268 13.1397 10.7742 13.6894 10.7842 13.7203C10.8349 13.877 10.9202 13.9801 11.0583 14.0512C11.1794 14.1136 11.3452 14.1139 11.4716 14.0519C11.5709 14.0031 11.673 13.9024 11.7235 13.8035C11.7883 13.6765 11.7907 13.6251 11.7571 13.0862C11.7396 12.8069 11.7253 12.5462 11.7252 12.5069L11.725 12.4355L12.3762 13.0841C12.9699 13.6754 13.0345 13.7349 13.1074 13.7578C13.2307 13.7965 13.3245 13.8049 13.4258 13.7861C13.6787 13.7394 13.838 13.558 13.8411 13.3133C13.8438 13.0988 13.8579 13.1172 13.1416 12.3986C12.6182 11.8735 12.5079 11.7555 12.5403 11.7554C12.5621 11.7553 12.8304 11.7708 13.1365 11.7899C13.7887 11.8306 13.8009 11.8291 13.9505 11.6924C14.1092 11.5474 14.1749 11.331 14.1149 11.1505C14.0796 11.0443 13.9553 10.9074 13.8455 10.8537C13.7372 10.8007 13.6972 10.7964 12.5001 10.7094C11.9463 10.6691 11.4643 10.6326 11.4288 10.6282C11.3684 10.6208 11.3207 10.5767 10.6737 9.92977L9.98309 9.23921L10.0784 9.04754C10.1308 8.94211 10.1989 8.78036 10.2296 8.6881L10.2855 8.52035L11.241 8.51656L12.1964 8.51276L13.0754 9.27198C14.0822 10.1416 14.0968 10.1519 14.3025 10.1387C14.6376 10.1172 14.8457 9.79682 14.7371 9.4698C14.7042 9.37068 14.6699 9.33625 14.1734 8.90378L13.7698 8.5523L14.7011 8.54431L15.6324 8.53633L15.7119 8.49722C15.8133 8.44735 15.911 8.34969 15.9609 8.24833C15.9931 8.18293 16 8.14486 16 8.03307C16 7.91647 15.9936 7.88431 15.955 7.80558C15.9002 7.69403 15.7951 7.58581 15.6927 7.53539L15.6164 7.49786L14.725 7.49335L13.8336 7.48885L14.2695 7.10664C14.5093 6.89643 14.7213 6.6996 14.7407 6.66923C14.8029 6.57153 14.8303 6.46043 14.8217 6.34051C14.802 6.06519 14.6021 5.8872 14.312 5.88673C14.2112 5.88657 14.1752 5.89402 14.1042 5.92961C14.0487 5.95743 13.7073 6.24154 13.1406 6.73141L12.2628 7.49011L11.2583 7.48599L10.2537 7.48188L10.1914 7.29609C10.1345 7.12634 10.0433 6.92649 9.97171 6.81469L9.94346 6.7706L10.6228 6.09145L11.3021 5.41233L12.4764 5.3244C13.6459 5.23683 13.6511 5.23627 13.7467 5.19155C13.9032 5.11836 14.0066 4.99411 14.0509 4.8258C14.0656 4.77006 14.0711 4.70881 14.0649 4.67003C14.0403 4.51628 13.9194 4.35448 13.7736 4.28013C13.6463 4.21523 13.5941 4.21274 13.0717 4.24651C12.8013 4.26401 12.5477 4.27839 12.5083 4.27847L12.4367 4.27861L13.087 3.62757C13.8127 2.90095 13.8087 2.90604 13.8087 2.70493C13.8087 2.50483 13.7028 2.33696 13.5197 2.24686C13.4299 2.20265 13.3959 2.19458 13.2998 2.19458C13.1009 2.19458 13.0882 2.20423 12.387 2.88641C12.0449 3.21931 11.7623 3.48931 11.759 3.48644C11.7557 3.48354 11.7694 3.21779 11.7894 2.89587C11.824 2.33931 11.8245 2.30632 11.7987 2.22476C11.7633 2.11237 11.6463 1.98392 11.5226 1.92153C11.4412 1.88047 11.4121 1.87448 11.2935 1.87446C11.1392 1.87443 11.0942 1.89215 10.9789 1.99841C10.8944 2.07628 10.8387 2.16683 10.8146 2.26558C10.8049 2.30512 10.7585 2.85433 10.7114 3.48605L10.6257 4.63461L9.93279 5.32732L9.23988 6.02001L9.04811 5.92472C8.94265 5.87231 8.78083 5.80428 8.68854 5.77354L8.52074 5.71765L8.5169 4.76247L8.51308 3.80731L9.27304 2.9286C9.69487 2.44086 10.0515 2.01435 10.0747 1.97002C10.1067 1.90861 10.118 1.85957 10.1236 1.75798C10.1304 1.63501 10.1275 1.61886 10.0815 1.52543C9.99382 1.34745 9.81355 1.23962 9.60501 1.24044C9.39198 1.24127 9.37564 1.25405 8.9176 1.77801L8.52074 2.23198L8.51275 1.30219L8.50476 0.372377L8.46026 0.287958C8.40542 0.183903 8.31121 0.090521 8.21219 0.0420964C8.11932 -0.00332451 7.92869 -0.0142843 7.83712 0.0205283ZM8.3502 6.75444C8.78545 6.8781 9.12498 7.21965 9.25126 7.66083C9.30231 7.83918 9.30231 8.16305 9.25126 8.3414C9.12403 8.78589 8.78636 9.12346 8.34173 9.25065C8.17733 9.29767 7.84089 9.30094 7.68172 9.25709C7.22559 9.1314 6.88024 8.79145 6.75143 8.3414C6.70038 8.16305 6.70038 7.83918 6.75143 7.66083C6.8939 7.16306 7.30422 6.79994 7.81756 6.71736C7.92548 6.7 8.23421 6.72148 8.3502 6.75444Z" fill="#80CEFF"/>
</svg>