<svg width="17" height="8" viewBox="0 0 17 8" fill="none" xmlns="http://www.w3.org/2000/svg">
<path d="M3.90385 1.11537V0.115375H16.25V1.11537H3.90385ZM3.90385 4.5V3.5H16.25V4.5H3.90385ZM3.90385 7.88463V6.88463H16.25V7.88463H3.90385ZM0.865375 1.23078C0.691025 1.23078 0.544875 1.16996 0.426925 1.04832C0.308975 0.926691 0.25 0.775967 0.25 0.59615C0.25 0.427234 0.308975 0.28565 0.426925 0.1714C0.544875 0.0571338 0.691025 0 0.865375 0C1.03974 0 1.1859 0.0571338 1.30385 0.1714C1.4218 0.28565 1.48078 0.427234 1.48078 0.59615C1.48078 0.775967 1.4218 0.926691 1.30385 1.04832C1.1859 1.16996 1.03974 1.23078 0.865375 1.23078ZM0.865375 4.59615C0.691025 4.59615 0.544875 4.53902 0.426925 4.42475C0.308975 4.3105 0.25 4.16892 0.25 4C0.25 3.80642 0.308975 3.65225 0.426925 3.5375C0.544875 3.42275 0.691025 3.36537 0.865375 3.36537C1.03974 3.36537 1.1859 3.42275 1.30385 3.5375C1.4218 3.65225 1.48078 3.80642 1.48078 4C1.48078 4.16892 1.4218 4.3105 1.30385 4.42475C1.1859 4.53902 1.03974 4.59615 0.865375 4.59615ZM0.865375 8C0.691025 8 0.544875 7.93918 0.426925 7.81755C0.308975 7.69592 0.25 7.5452 0.25 7.3654C0.25 7.19648 0.308975 7.05489 0.426925 6.94063C0.544875 6.82636 0.691025 6.76923 0.865375 6.76923C1.03974 6.76923 1.1859 6.82636 1.30385 6.94063C1.4218 7.05489 1.48078 7.19648 1.48078 7.3654C1.48078 7.5452 1.4218 7.69592 1.30385 7.81755C1.1859 7.93918 1.03974 8 0.865375 8Z"/>
</svg>