<svg width="16" height="16" viewBox="0 0 16 16" fill="none" xmlns="http://www.w3.org/2000/svg">
<path d="M1.61538 16C1.15513 16 0.770833 15.8458 0.4625 15.5375C0.154167 15.2292 0 14.8449 0 14.3846V1.61537C0 1.15512 0.154167 0.770833 0.4625 0.4625C0.770833 0.154167 1.15513 0 1.61538 0H8.01923V1H1.61538C1.46154 1 1.32052 1.0641 1.1923 1.1923C1.0641 1.32052 1 1.46154 1 1.61537V14.3846C1 14.5385 1.0641 14.6795 1.1923 14.8077C1.32052 14.9359 1.46154 15 1.61538 15H8.01923V16H1.61538ZM12.4615 11.5385L11.7596 10.8192L14.0788 8.5H5.1923V7.5H14.0788L11.7596 5.18078L12.4615 4.46152L16 8L12.4615 11.5385Z"/>
</svg>