<svg width="16" height="14" viewBox="0 0 16 14" fill="none" xmlns="http://www.w3.org/2000/svg">
<path fill-rule="evenodd" clip-rule="evenodd" d="M4.77672 0.00513269C4.38292 0.0547334 4.09772 0.109557 3.84327 0.184607C1.84928 0.772664 0.361047 2.63054 0.0436956 4.92784C-0.0145652 5.34943 -0.0145652 8.64256 0.0436956 9.06415C0.362142 11.3695 1.86813 13.2418 3.86111 13.8102C4.97217 14.1271 6.06498 14.0491 7.34383 13.5616C7.47297 13.5124 8.00831 13.2784 8.53347 13.0417C9.56999 12.5744 9.90108 12.4427 10.3829 12.3059C11.0039 12.1297 11.453 12.0627 12.2589 12.0261C12.9522 11.9947 13.4084 11.8723 13.9507 11.5722C14.8152 11.0938 15.5014 10.2055 15.8216 9.15014C15.992 8.58876 16 8.47459 16 6.61041C16 4.92363 15.998 4.8666 15.9292 4.56416C15.4696 2.54399 13.5743 1.20572 10.1457 0.480493C8.80349 0.196595 7.31653 0.0376974 5.71591 0.00716575C5.25962 -0.00152753 4.83699 -0.00243887 4.77672 0.00513269ZM6.99947 0.758152C8.92135 0.898086 10.6847 1.23817 12.0218 1.72679C13.9118 2.41741 15.0168 3.41111 15.3084 4.68246C15.4597 5.34164 15.3796 6.14402 15.0928 6.84253C14.9628 7.15927 14.7819 7.45751 14.53 7.77078C14.3147 8.03835 14.286 8.11732 14.338 8.2976C14.3804 8.44451 14.5561 8.55395 14.6893 8.51651C14.7847 8.4897 15.0376 8.21302 15.2442 7.90959L15.3739 7.71897L15.3847 7.83949C15.4016 8.02871 15.3277 8.56362 15.242 8.87136C15.0044 9.72488 14.4599 10.4612 13.7303 10.9155C13.2791 11.1964 12.6779 11.3421 11.966 11.3429C11.4729 11.3435 10.7564 11.4648 10.1167 11.6559C9.63507 11.7999 9.35811 11.9121 8.25171 12.4115C7.72655 12.6485 7.14191 12.8979 6.95251 12.9657C5.33059 13.5458 3.87122 13.3631 2.61137 12.4222C2.2212 12.1308 1.65531 11.4975 1.39966 11.066C1.17207 10.6818 0.963597 10.2102 0.847357 9.81644C0.752155 9.49384 0.64418 8.91062 0.644587 8.72115L0.6449 8.59093L0.7283 8.74867C0.892376 9.05907 1.24207 9.55785 1.49668 9.84476C2.22718 10.6679 3.1314 11.2064 4.19756 11.4535C4.48933 11.5211 4.63757 11.5332 5.16805 11.533C6.23422 11.5324 6.73906 11.3931 8.4552 10.6256C9.07507 10.3484 9.73719 10.0665 9.9266 9.9992C10.6153 9.75436 11.4538 9.59311 12.0701 9.58701C12.5572 9.58217 12.7258 9.54796 12.8113 9.43663C12.9532 9.2519 12.8827 8.95556 12.6821 8.89355C12.566 8.85765 11.5987 8.89947 11.211 8.95717C10.3375 9.08715 9.71994 9.29323 8.37957 9.90204C7.49464 10.304 7.23097 10.4168 6.90555 10.5326C4.98742 11.2152 3.18177 10.7712 1.90904 9.30395C1.26799 8.56492 0.898981 7.78354 0.703286 6.75062C0.603357 6.22307 0.603451 5.31413 0.703505 4.78762C0.895725 3.77633 1.27888 2.96354 1.90297 2.24323C2.64728 1.38421 3.57995 0.868045 4.6515 0.722187C4.92202 0.685346 6.28678 0.706238 6.99947 0.758152ZM4.60454 1.43609C3.05285 1.69299 1.81043 2.92218 1.37643 4.62988C1.31088 4.88774 1.24034 5.46962 1.23969 5.75783C1.23596 7.39662 2.08561 8.93842 3.39925 9.67657C4.4611 10.2732 5.6137 10.2978 7.01512 9.75372C7.13565 9.70693 7.57237 9.51466 7.98561 9.32649C8.96092 8.8824 9.28569 8.74836 9.75773 8.59496C10.5173 8.34822 11.1404 8.23689 12.0317 8.18869C12.7474 8.15003 12.9483 8.10197 13.3786 7.86641C13.9159 7.57235 14.3526 7.04763 14.572 6.43254C14.7139 6.03479 14.7753 5.63799 14.7532 5.26207C14.7313 4.88963 14.6832 4.70122 14.5222 4.35717C14.3738 4.03983 13.9789 3.58904 13.603 3.30784C12.9172 2.79476 11.7674 2.30538 10.5058 1.98955C10.0565 1.87706 8.98628 1.66786 8.86024 1.66786C8.74829 1.66786 8.59718 1.83766 8.57595 1.9873C8.56089 2.09334 8.57276 2.13246 8.64896 2.22795C8.7369 2.33815 8.75812 2.34538 9.28347 2.44377C11.7743 2.91037 13.4637 3.71004 13.9594 4.65715C14.3523 5.40797 14.0417 6.57157 13.3015 7.1217C13.2031 7.19485 13.0054 7.29991 12.8622 7.35519C12.6277 7.4457 12.5404 7.45884 11.9843 7.48745C11.0238 7.53687 10.3576 7.66036 9.51608 7.94489C9.02156 8.11213 8.74557 8.22686 7.64124 8.72438C6.43185 9.26925 6.00521 9.40011 5.31053 9.43919C4.38649 9.49121 3.49552 9.10443 2.83458 8.36438C1.72262 7.11931 1.55278 5.21216 2.42259 3.73812C2.86251 2.99264 3.54495 2.45124 4.35876 2.20222C4.66011 2.10999 4.68828 2.10778 5.59069 2.10561C6.09863 2.10438 6.53939 2.09026 6.57016 2.07417C6.6438 2.03571 6.7179 1.87142 6.71702 1.74848C6.71624 1.63894 6.64323 1.52092 6.53961 1.46154C6.43004 1.39879 4.94759 1.3793 4.60454 1.43609ZM7.19879 1.55253C7.04445 1.69755 7.02176 1.88926 7.14025 2.04693C7.23526 2.17337 7.34706 2.20947 7.48531 2.1584C7.68645 2.08405 7.75614 1.79525 7.61673 1.61377C7.523 1.49179 7.2985 1.45891 7.19879 1.55253ZM5.05166 2.84401C4.22476 3.06846 3.70233 3.96597 3.91887 4.79001C4.10971 5.51621 4.72219 5.99052 5.46546 5.98765C5.80642 5.98635 6.07972 5.9058 6.3184 5.73621C6.80818 5.38823 7.05197 4.89675 7.02457 4.31244C7.0129 4.0638 6.99392 3.98294 6.89594 3.76448C6.72795 3.39 6.50426 3.14453 6.1757 2.9741C5.82927 2.79434 5.41233 2.74611 5.05166 2.84401ZM5.8952 3.59419C6.07568 3.68207 6.29019 3.91777 6.36007 4.10506C6.42678 4.28387 6.41513 4.5331 6.33055 4.73648C6.19198 5.0697 5.85879 5.28773 5.48365 5.29071C5.21169 5.29289 5.04743 5.24178 4.85098 5.09385C4.2881 4.67012 4.42509 3.82341 5.10018 3.55342C5.31804 3.46632 5.66955 3.48433 5.8952 3.59419ZM13.7705 8.45776C13.6624 8.48121 13.5425 8.66465 13.5425 8.80665C13.5425 9.09465 13.8753 9.2464 14.0497 9.03786C14.1607 8.90508 14.1794 8.81054 14.1241 8.66233C14.0916 8.57516 14.0428 8.51988 13.9672 8.48451C13.9069 8.45629 13.8536 8.43533 13.8487 8.43796C13.8438 8.44059 13.8087 8.44949 13.7705 8.45776Z" fill="#B24747"/>
</svg>
