<svg width="9" height="16" viewBox="0 0 9 16" fill="none" xmlns="http://www.w3.org/2000/svg">
<path fill-rule="evenodd" clip-rule="evenodd" d="M2.40952 0.0120893C2.05371 0.0526365 1.73183 0.264125 1.57658 0.559345C1.48166 0.739862 1.4621 0.888529 1.46875 1.37899C1.47536 1.86737 1.47593 1.8697 1.61314 1.96505C1.66658 2.00219 1.69709 2.00382 2.44112 2.00913L3.21361 2.01463V1.73327V1.45189H2.6407H2.06778V1.1969C2.06778 1.05665 2.07827 0.909307 2.09112 0.869452C2.12131 0.775659 2.23097 0.657365 2.33629 0.604961L2.41957 0.563516H4.50017H6.58076L6.66404 0.604961C6.77573 0.660526 6.88322 0.781195 6.91036 0.881478C6.92256 0.926589 6.93255 1.07337 6.93255 1.20769V1.45189H5.61585H4.29914V1.73287V2.01388L5.8154 2.00874C7.31112 2.00369 7.33243 2.00309 7.38717 1.96505C7.4177 1.94384 7.46132 1.90322 7.48412 1.87479C7.5236 1.82553 7.52557 1.79901 7.52553 1.31487C7.52551 0.812391 7.52491 0.805115 7.4725 0.671691C7.35104 0.362388 7.10728 0.14802 6.75163 0.0377493C6.6476 0.00548733 6.51999 0.00328044 4.59063 0.000325432C3.46288 -0.0013952 2.48139 0.00387888 2.40952 0.0120893ZM2.07281 2.99017C2.09745 3.5566 1.96369 3.92167 1.61256 4.24622C0.789149 5.00726 0.254305 5.93433 0.0685991 6.92239C0.00204019 7.27656 -0.00535693 7.71554 0.0025634 10.8406C0.0103631 13.9124 0.0104433 13.9175 0.0543469 14.1311C0.136726 14.5319 0.242083 14.793 0.429276 15.0603C0.769489 15.546 1.32275 15.85 2.06193 15.9576C2.25101 15.9851 2.52704 15.9902 4.21324 15.9973C6.70946 16.0079 6.99413 15.9936 7.48915 15.8323C8.19691 15.6018 8.68813 15.0974 8.88109 14.403C8.99345 13.9987 8.98846 14.1518 8.99729 10.8406C9.00557 7.73436 8.99787 7.27329 8.93183 6.92239C8.79174 6.17789 8.46878 5.49304 7.95828 4.858C7.77022 4.62407 7.4361 4.26909 7.37563 4.23898C7.31657 4.20958 7.15396 3.99792 7.08075 3.85517C6.95573 3.6114 6.92729 3.46771 6.92994 3.09304L6.93229 2.76107H6.63295H6.33362L6.32564 2.99952C6.31527 3.30943 6.33678 3.52783 6.3991 3.74568C6.5058 4.11869 6.663 4.3587 7.03767 4.72076C7.53369 5.20005 7.87151 5.68074 8.10727 6.24266C8.19802 6.45899 8.30295 6.80323 8.33013 6.97382L8.34428 7.06266H4.99304C1.83753 7.06266 1.63829 7.06456 1.58201 7.09539C1.39003 7.20051 1.3923 7.47043 1.58603 7.57632C1.65524 7.61414 1.67711 7.61442 5.02862 7.61926L8.40157 7.62416L8.39405 10.7519C8.38599 14.0982 8.38971 13.9726 8.28938 14.2945C8.10679 14.8802 7.69188 15.2324 7.01797 15.3739C6.9378 15.3907 6.74331 15.4126 6.58577 15.4226C6.21321 15.4463 2.78712 15.4463 2.41457 15.4226C1.80114 15.3837 1.39682 15.2345 1.09173 14.9345C0.80509 14.6527 0.665298 14.3076 0.619806 13.7695C0.604247 13.5857 0.599744 12.5617 0.60489 10.3917C0.611745 7.51206 0.615002 7.26298 0.64805 7.08172C0.777148 6.37399 1.0666 5.75643 1.54801 5.16156C1.62935 5.06107 1.81895 4.85959 1.96938 4.71382C2.26217 4.43005 2.38727 4.26543 2.50133 4.01378C2.63899 3.71009 2.68601 3.43513 2.67473 2.99952L2.66856 2.76107H2.3657H2.06281L2.07281 2.99017ZM1.7763 10.1937C1.69516 10.2272 1.62876 10.2973 1.60494 10.3746C1.59288 10.4137 1.58532 11.0376 1.58532 11.9924V13.5466L1.63106 13.627C1.7382 13.8155 2.01431 13.8268 2.14276 13.6479L2.18839 13.5843V11.9721V10.3598L2.14316 10.2982C2.05829 10.1825 1.9073 10.1395 1.7763 10.1937Z"/>
</svg>