<svg width="17" height="16" viewBox="0 0 17 16" fill="none" xmlns="http://www.w3.org/2000/svg">
<path d="M12.372 2.38963C12.009 2.38963 11.6461 2.47805 11.3332 2.64226C10.9202 1.64438 9.94398 0.987548 8.86765 1.00018C7.75378 1.00018 6.75255 1.69491 6.35206 2.73068C5.98911 2.50331 5.56359 2.38963 5.13806 2.38963C3.99916 2.40226 3.02296 3.21067 2.79768 4.33487C2.53486 5.6359 3.38591 6.91167 4.67499 7.17693C4.67499 10.3979 4.67499 10.5874 4.67499 12.3937C4.67499 12.7347 4.95033 13 5.27573 13H12.2593C12.5972 13 12.8601 12.7221 12.8601 12.3937V7.1643C13.9614 6.9243 14.7499 5.93905 14.7499 4.80223C14.7624 3.47593 13.6861 2.38963 12.372 2.38963ZM12.2593 12.8105H5.28825C5.06297 12.8105 4.87524 12.6211 4.87524 12.3937V11.2316H12.6849V12.3937C12.6723 12.6211 12.4846 12.8105 12.2593 12.8105ZM12.7599 7.00009C12.7099 7.01272 12.6849 7.05062 12.6849 7.08851V11.0421H10.9953V8.93269C10.9953 8.88217 10.9577 8.83164 10.8951 8.83164C10.8451 8.83164 10.795 8.86954 10.795 8.93269V11.0421H8.85514V7.93481C8.85514 7.88429 8.81759 7.83376 8.75502 7.83376C8.70495 7.83376 8.65489 7.87166 8.65489 7.93481V11.0421H6.70249V8.93269C6.70249 8.88217 6.66494 8.83164 6.60237 8.83164C6.5523 8.83164 6.50224 8.86954 6.50224 8.93269V11.0421H4.86273V7.08851C4.86273 7.03798 4.82518 7.00009 4.78763 7.00009C3.72382 6.82325 2.93535 5.90116 2.93535 4.80223C2.93535 3.57698 3.92407 2.5791 5.13806 2.5791C5.56359 2.5791 5.98911 2.70542 6.33954 2.95804C6.35206 2.95804 6.35206 2.97068 6.36457 2.97068C6.41464 2.98331 6.4647 2.95804 6.47721 2.90752C6.82764 1.88438 7.77881 1.18965 8.85514 1.18965C9.89392 1.17702 10.8326 1.83385 11.183 2.8191C11.183 2.8191 11.183 2.83173 11.1955 2.83173C11.2205 2.88226 11.2831 2.89489 11.3207 2.85699C11.6336 2.66752 11.9965 2.5791 12.3595 2.5791C13.4233 2.5791 14.3369 3.34962 14.5246 4.41065C14.7499 5.62327 13.9489 6.77273 12.7599 7.00009Z" stroke-width="0.8"/>
</svg>