<svg width="14" height="16" viewBox="0 0 14 16" fill="none" xmlns="http://www.w3.org/2000/svg">
<path fill-rule="evenodd" clip-rule="evenodd" d="M0.812613 0.0258084C0.719556 0.0637754 0.635326 0.160854 0.619758 0.248075C0.552161 0.62706 0.296165 2.95316 0.205847 4.00927C-0.0655641 7.18217 -0.0680427 9.0565 0.195215 12.0487C0.294469 13.177 0.533941 15.2643 0.620084 15.7521C0.647175 15.9055 0.833747 16.021 1.00714 15.9918C1.06374 15.9822 1.23235 15.8746 1.62054 15.6002L2.15591 15.2217L2.68612 15.6001C3.23351 15.9908 3.28743 16.019 3.43256 15.9903C3.47054 15.9828 3.65446 15.8686 3.85293 15.7293C4.04698 15.593 4.28956 15.4229 4.39199 15.3512L4.57821 15.2208L5.09677 15.591C5.42225 15.8234 5.64631 15.9695 5.69858 15.9836C5.85782 16.0265 5.85571 16.0277 6.69723 15.4309L6.99293 15.2212L7.51257 15.5916C7.83036 15.8181 8.06387 15.9705 8.11373 15.984C8.25612 16.0225 8.32715 15.9864 8.88704 15.5907L9.41062 15.2207L9.91724 15.5833C10.1959 15.7828 10.4578 15.959 10.4992 15.9749C10.6125 16.0185 10.7222 15.9965 10.8608 15.9024C10.9267 15.8576 11.1719 15.686 11.4056 15.521L11.8306 15.221L12.3358 15.579C12.6137 15.7758 12.8716 15.9511 12.9088 15.9684C12.9995 16.0106 13.093 16.0081 13.1966 15.9605C13.3568 15.887 13.3532 15.9018 13.5115 14.6698C13.8234 12.2416 14.0006 9.86552 14 8.11699C13.9994 6.14924 13.7833 3.42316 13.39 0.419914C13.3538 0.143641 13.2822 0.0373688 13.1117 0.00667826C12.9709 -0.0186526 12.9136 0.0112358 12.3593 0.399024L11.8162 0.779065L11.7288 0.714926C11.6808 0.679659 11.4415 0.508739 11.1972 0.33508C10.7269 0.00082971 10.6734 -0.024599 10.5251 0.0160869C10.4794 0.0286057 10.2266 0.191936 9.93072 0.40006C9.64753 0.599245 9.40612 0.762224 9.39427 0.762224C9.3824 0.762224 9.14447 0.599245 8.86552 0.400041C8.56743 0.187183 8.32559 0.0288795 8.27888 0.0160869C8.1288 -0.0250684 8.08135 -0.001459 7.52562 0.390691C7.23605 0.59504 6.98945 0.762224 6.9776 0.762224C6.96575 0.762224 6.72856 0.599265 6.4505 0.40008C6.15247 0.186616 5.91231 0.0289773 5.86547 0.016126C5.71193 -0.0260465 5.66353 -0.00212391 5.10684 0.391278C4.81814 0.595294 4.5728 0.762224 4.56164 0.762224C4.55049 0.762224 4.30656 0.595333 4.01956 0.391356C3.46493 -0.00282815 3.41666 -0.0267116 3.26307 0.0168106C3.21826 0.0295054 2.95675 0.199839 2.66314 0.407572L2.14266 0.775799L1.68933 0.451153C1.43999 0.272604 1.19813 0.101312 1.15186 0.0705043C1.05269 0.00452662 0.910672 -0.0141929 0.812613 0.0258084ZM3.96307 1.09941C4.42938 1.43209 4.50596 1.46922 4.64581 1.43041C4.69225 1.41754 4.89663 1.28785 5.12075 1.12902C5.33713 0.975688 5.57254 0.809169 5.64387 0.758957L5.77359 0.667668L6.2941 1.03832C6.84934 1.43368 6.91848 1.46916 7.05922 1.43082C7.12786 1.41214 7.44367 1.19927 8.10064 0.728854L8.18824 0.666142L8.70813 1.03723C9.26254 1.43292 9.33244 1.46893 9.47263 1.43096C9.52134 1.41776 9.76746 1.25936 10.0839 1.03752L10.6136 0.666182L10.8122 0.808269C10.9215 0.886414 11.1553 1.0535 11.3318 1.17959C11.5083 1.30567 11.6796 1.41809 11.7123 1.42939C11.7916 1.45676 11.9255 1.43589 12.0088 1.38317C12.0459 1.35966 12.2315 1.23156 12.4211 1.09847C12.6108 0.965399 12.7733 0.863919 12.7822 0.872937C12.7911 0.881974 12.8097 0.986192 12.8235 1.10453C12.8373 1.22287 12.8777 1.57056 12.9131 1.87717C12.9486 2.18379 12.9825 2.47205 12.9886 2.51778L12.9995 2.60091H7.58606H2.1726V2.89428V3.18765L7.61365 3.19258L13.0547 3.19751L13.0805 3.43224C13.1109 3.708 13.2064 4.83741 13.2384 5.30027C13.4078 7.74373 13.3845 9.36282 13.1407 12.1073C13.1106 12.4462 13.0812 12.7433 13.0753 12.7675L13.0647 12.8115H7.61868H2.1726V13.1049V13.3983H7.58948H13.0063L12.9915 13.5499C12.9833 13.6333 12.9426 13.9744 12.9009 14.3079C12.8593 14.6414 12.8191 14.9653 12.8117 15.0277C12.8025 15.1056 12.7899 15.1383 12.7716 15.132C12.757 15.127 12.5773 15.0036 12.3722 14.8578C11.9658 14.5691 11.8824 14.5306 11.7447 14.5689C11.6982 14.5818 11.4903 14.7138 11.2609 14.8762C11.0397 15.0328 10.804 15.1995 10.7372 15.2467L10.6157 15.3325L10.0958 14.9613C9.7767 14.7336 9.54443 14.5817 9.49438 14.5682C9.35283 14.53 9.28223 14.566 8.72254 14.9613L8.19816 15.3317L7.68034 14.9614C7.37486 14.7429 7.12993 14.582 7.08305 14.5692C6.93322 14.528 6.88604 14.5515 6.33157 14.9437C6.04261 15.1481 5.79594 15.3153 5.78342 15.3153C5.77091 15.3153 5.53307 15.1525 5.25488 14.9535C4.96197 14.744 4.71565 14.5824 4.66964 14.5696C4.52025 14.5278 4.47311 14.5512 3.90089 14.9522L3.35852 15.3322L3.27108 15.2686C2.86162 14.9704 2.34465 14.6108 2.28784 14.5845C2.19783 14.543 2.11331 14.5438 2.01956 14.5873C1.97818 14.6065 1.77965 14.7393 1.5784 14.8824C1.37716 15.0256 1.20748 15.1381 1.2013 15.1326C1.17728 15.111 0.995685 13.5871 0.901388 12.6159C0.548334 8.97918 0.568229 6.72095 0.989206 2.64982C1.05413 2.02177 1.19026 0.876594 1.20115 0.866814C1.20537 0.863019 1.38746 0.986642 1.60578 1.14152C1.84503 1.31123 2.02943 1.42793 2.06987 1.4352C2.21418 1.46116 2.26955 1.43235 2.81942 1.04497L3.35544 0.667375L3.44347 0.72944C3.49189 0.763574 3.72571 0.930053 3.96307 1.09941ZM9.63855 6.00406C9.46128 6.02804 9.2663 6.09458 9.03235 6.21095C8.309 6.57079 7.86637 6.69406 7.29295 6.69535C6.88478 6.69629 6.71008 6.65707 6.30106 6.47273C5.93066 6.3058 5.56888 6.19335 5.25955 6.149C4.86278 6.09212 4.3769 6.15321 4.00865 6.30627C3.36642 6.57321 2.93726 7.11332 2.79016 7.8398C2.73458 8.11421 2.72538 8.52557 2.77037 8.72336C2.98814 9.68044 3.69664 10.2668 4.63972 10.2705C5.09022 10.2722 5.50627 10.1192 6.04276 9.75452C6.29073 9.58593 6.78196 9.14752 6.97769 8.92009C7.63374 8.15777 7.95225 7.82264 8.4106 7.41234C8.86967 7.00139 9.16419 6.79534 9.49372 6.65454C9.69491 6.56859 9.8525 6.56126 10.0478 6.62876C10.3894 6.74685 10.5855 7.07645 10.5866 7.5341C10.5875 7.93777 10.4366 8.19713 10.1288 8.32144C9.87545 8.4237 9.65266 8.40928 8.90883 8.24245C8.65014 8.18441 8.60404 8.18392 8.49718 8.23795C8.40816 8.28296 8.32572 8.40351 8.32572 8.48864C8.32572 8.58134 8.41012 8.69921 8.5064 8.74095C8.67401 8.8136 9.5446 8.97765 9.76259 8.97765C10.1073 8.97765 10.5152 8.84509 10.7541 8.65547C11.0592 8.41335 11.2393 8.00383 11.2391 7.5529C11.2387 6.76766 10.8342 6.20874 10.1479 6.04537C9.94958 5.99815 9.78246 5.9846 9.63855 6.00406ZM5.2227 6.73654C5.46161 6.77766 5.69262 6.85414 6.01015 6.99724C6.51064 7.22278 6.77505 7.2815 7.29691 7.28299L7.627 7.28394L7.56869 7.34622C7.53662 7.38048 7.42223 7.4997 7.31452 7.61115C7.07811 7.85572 6.82816 8.13381 6.59608 8.4104C6.36231 8.68902 5.88498 9.12531 5.61148 9.31036C5.35255 9.48556 5.04878 9.62921 4.8506 9.67019C4.60543 9.72089 4.28288 9.66865 4.03532 9.53812C3.69847 9.36053 3.42032 8.88251 3.39577 8.43894C3.37657 8.09246 3.46258 7.70835 3.62517 7.41435C3.72604 7.23197 3.96379 7.00014 4.15389 6.89884C4.45552 6.73807 4.86786 6.67547 5.2227 6.73654Z" />
</svg>