<svg width="16" height="14" viewBox="0 0 16 14" fill="none" xmlns="http://www.w3.org/2000/svg">
<path fill-rule="evenodd" clip-rule="evenodd" d="M5.34275 0.0157603C5.12669 0.0454134 4.93454 0.153396 4.78256 0.330563C4.61244 0.528898 4.53294 0.751461 4.53294 1.02941C4.53294 1.45119 4.78487 1.83209 5.16213 1.98073C5.26173 2.01997 5.29425 2.02183 6.04128 2.0314C6.62012 2.03882 6.82667 2.04724 6.85507 2.0645C6.9206 2.10434 6.98453 2.21077 6.99262 2.29346C7.00174 2.38678 6.94664 2.51368 6.87181 2.57175C6.82708 2.60648 6.7906 2.61037 6.415 2.62052C6.00011 2.63174 5.96724 2.63671 5.82008 2.71058C5.63163 2.80517 5.45932 3.04455 5.41398 3.27474C5.38306 3.43171 5.38931 3.73394 5.42505 3.80954C5.512 3.99356 5.76552 4.00771 5.87228 3.8345C5.89632 3.79549 5.90532 3.73398 5.91199 3.5633C5.91942 3.37312 5.92594 3.33463 5.95905 3.28526C6.03031 3.17907 6.07643 3.16846 6.46691 3.16846C6.95554 3.16846 7.09239 3.12431 7.28905 2.90325C7.544 2.61666 7.58099 2.17615 7.3768 1.85808C7.31285 1.75846 7.17326 1.62232 7.08717 1.57563C6.92634 1.48839 6.86349 1.48238 6.11092 1.48227C5.68953 1.48221 5.37821 1.47472 5.34101 1.46374C5.25594 1.43861 5.13097 1.31749 5.08663 1.21721C5.00654 1.03608 5.05879 0.78346 5.20247 0.657114C5.32965 0.545264 5.29138 0.547702 6.92101 0.547702H8.40642L8.4646 0.506026C8.50039 0.480386 8.53564 0.431307 8.55626 0.378433C8.58572 0.302835 8.58715 0.283243 8.56803 0.215433C8.54064 0.118208 8.47131 0.0437273 8.38431 0.0180511C8.30782 -0.00452774 5.50595 -0.00663534 5.34275 0.0157603ZM1.57303 2.73793C1.24697 2.81327 0.972691 3.07762 0.860125 3.42504C0.830665 3.51593 0.821115 3.5887 0.819823 3.73202C0.818185 3.91291 0.816702 3.91987 0.780106 3.91987C0.719927 3.91987 0.52705 4.00046 0.431964 4.06533C0.249326 4.18992 0.0926998 4.41677 0.0270914 4.65171C-0.00843649 4.77897 -0.00914327 5.05063 0.025695 5.19283C0.105628 5.51912 0.371837 5.80867 0.68371 5.90859C0.985361 6.00523 1.3534 5.91707 1.59569 5.69013L1.68375 5.60766L1.92794 5.80063C2.06226 5.90676 2.17931 5.9909 2.18807 5.98762C2.20601 5.98089 2.4816 5.58596 2.4816 5.56697C2.4816 5.56023 2.31496 5.42232 2.11127 5.26049C1.8552 5.05706 1.72172 4.96246 1.67864 4.95386C1.57885 4.93396 1.49128 4.97263 1.41752 5.06916C1.28594 5.24136 1.21458 5.31666 1.14955 5.35194C0.860056 5.50895 0.50795 5.27169 0.511053 4.9217C0.514018 4.58532 0.821977 4.36494 1.11978 4.48608C1.17193 4.50729 1.24174 4.52463 1.27493 4.52459C1.40306 4.52446 1.51607 4.39731 1.51619 4.25313C1.51626 4.16582 1.50045 4.12616 1.4263 4.02778C1.37408 3.9585 1.32664 3.82008 1.32664 3.73702C1.32664 3.54884 1.4647 3.3484 1.63598 3.28792C1.92079 3.18736 2.22141 3.41522 2.22265 3.73261C2.22309 3.84627 2.19739 3.91809 2.09179 4.09823C1.99628 4.26121 1.98388 4.32772 2.02904 4.43506C2.05997 4.50859 2.1291 4.56647 2.83457 5.10946C3.25899 5.43612 3.6344 5.71352 3.66881 5.72589C3.72164 5.74487 3.76888 5.74183 3.9727 5.70628C4.64573 5.58893 5.35782 5.5928 5.93545 5.71696C6.87759 5.91948 7.7905 6.43747 8.28389 7.04946C8.52261 7.34557 8.70463 7.69401 8.77778 7.99488C8.79899 8.08208 8.8249 8.15341 8.83536 8.15341C8.86408 8.15341 9.31132 8.06427 9.31794 8.05721C9.32111 8.05386 9.30915 7.98958 9.29136 7.91441C9.11181 7.15556 8.62824 6.48974 7.87714 5.96718C7.2651 5.54137 6.55937 5.26143 5.75685 5.12615C5.5333 5.08846 5.44772 5.08402 4.94666 5.08419C4.39796 5.08435 4.22184 5.09769 3.88499 5.1646L3.80763 5.17996L3.23511 4.74008C2.92022 4.49812 2.65165 4.28929 2.63828 4.27595C2.61745 4.2552 2.6203 4.23647 2.65812 4.14537C2.9723 3.38859 2.33494 2.56188 1.57303 2.73793ZM9.61975 3.16984C8.84908 3.23765 8.10294 3.46457 7.44619 3.83095C7.2409 3.94546 6.76263 4.27558 6.64834 4.38166L6.58309 4.44219L6.73158 4.63462C6.81324 4.74046 6.88662 4.83428 6.89465 4.84311C6.90286 4.85215 6.97953 4.80358 7.06998 4.73207C8.85567 3.32001 11.436 3.36953 13.1606 4.84892C13.3894 5.0452 13.7498 5.4407 13.9171 5.67926C14.3101 6.2395 14.5562 6.84239 14.6727 7.53029C14.7072 7.73367 14.7116 7.82004 14.7118 8.30003C14.712 8.73186 14.7057 8.88493 14.6806 9.0606C14.6 9.62423 14.4451 10.209 14.2508 10.6825L14.1569 10.9116L8.47467 10.9208L2.79245 10.93L2.72754 10.999C2.66599 11.0644 2.66265 11.074 2.6636 11.1823C2.66455 11.291 2.67923 11.3298 2.97089 11.9929C3.13934 12.376 3.29014 12.7046 3.30598 12.7233C3.37988 12.8103 3.34957 12.8085 4.69153 12.8084C5.92196 12.8083 5.95655 12.8074 6.01127 12.7719C6.17744 12.6642 6.17643 12.3966 6.00944 12.2995C5.95976 12.2706 5.85624 12.2674 4.80654 12.2627L3.658 12.2577L3.4902 11.8723C3.39791 11.6604 3.32585 11.4832 3.33009 11.4787C3.33434 11.4742 6.03719 11.4726 9.33646 11.4752L15.3351 11.4798L15.1673 11.8646L14.9994 12.2495L11.5546 12.2587C8.13618 12.2677 8.10939 12.2681 8.04952 12.3049C7.96878 12.3545 7.90622 12.4833 7.92096 12.5696C7.93642 12.6601 7.97143 12.7244 8.0271 12.7645C8.07392 12.7982 8.16236 12.7996 10.9308 12.8085L13.7861 12.8176L13.6735 13.1338L13.5608 13.4499H9.23649H4.91218V13.725V14L9.36698 13.9953L13.8218 13.9906L13.8694 13.9528C13.952 13.8872 13.9748 13.8373 14.1588 13.3216L14.3386 12.8176L14.7933 12.8085C15.2851 12.7986 15.3038 12.7947 15.3678 12.6907C15.3827 12.6666 15.5309 12.3353 15.697 11.9547C16.0246 11.2043 16.0356 11.1667 15.9645 11.0445C15.893 10.9218 15.8874 10.9208 15.2826 10.9208C14.8583 10.9208 14.7379 10.9157 14.738 10.8979C14.738 10.8853 14.7732 10.7801 14.8163 10.6642C14.993 10.1881 15.1131 9.68949 15.1981 9.07892C15.2423 8.76075 15.2423 7.84861 15.198 7.54862C14.9558 5.9089 13.9997 4.55602 12.5314 3.77549C11.7801 3.37607 11.0213 3.17972 10.1536 3.16014C9.96817 3.15596 9.72792 3.16033 9.61975 3.16984ZM11.3324 5.05406C11.2474 5.09511 11.1412 5.22266 11.118 5.31153C11.0785 5.46266 11.1059 5.59967 11.1988 5.71502C11.3214 5.86734 11.511 5.90639 11.6837 5.81488C11.9698 5.66336 11.9698 5.21867 11.6837 5.06714C11.5739 5.00895 11.4364 5.00382 11.3324 5.05406ZM12.4366 5.86017C12.1521 5.99836 12.1202 6.42244 12.3807 6.60568C12.4732 6.67075 12.6354 6.68769 12.7439 6.64363C13.0135 6.53416 13.0841 6.15324 12.874 5.94136C12.7593 5.82566 12.5773 5.79186 12.4366 5.86017ZM2.75827 6.12435L2.59866 6.36653L2.60861 6.56812C2.62152 6.83042 2.68906 7.26248 2.77553 7.63596C3.00457 8.6254 3.40156 9.50457 3.94238 10.22L4.07066 10.3897L4.25337 10.2186C4.35387 10.1246 4.43872 10.0392 4.44192 10.029C4.44513 10.0188 4.40441 9.95417 4.35142 9.88546C3.73581 9.08697 3.29381 7.94683 3.14554 6.77489L3.11607 6.54182L3.22975 6.36845L3.34345 6.19508L3.14954 6.05044C3.04291 5.9709 2.94715 5.90051 2.93675 5.894C2.92569 5.88709 2.85177 5.9825 2.75827 6.12435ZM11.0786 6.35932C10.8842 6.40714 10.7697 6.56303 10.7697 6.77982C10.7697 7.08736 11.0706 7.28859 11.3334 7.15684C11.4361 7.10534 11.4829 7.05467 11.5302 6.94383C11.6636 6.63106 11.3937 6.2818 11.0786 6.35932Z"/>
</svg>
